<svg width="180" height="180" viewBox="0 0 180 180" fill="none" xmlns="http://www.w3.org/2000/svg">
<path opacity="0.5" d="M38.763 74.7443C26.8498 83.9584 32.342 117.336 36.0109 121.389C43.1327 135.466 44.5728 137.889 51.7082 144.639C69.7705 161.725 100.211 160.391 103.508 159.847C119.047 157.288 138.759 150.865 138.759 130.389C138.759 117.575 144.15 121.903 148.034 94.3888C151.919 66.8743 130.685 35.7579 114.499 30.6388C97.8947 25.3878 64.6614 31.8728 65.9564 49.7892C67.2513 67.7057 53.6544 63.2265 38.763 74.7443Z" fill="url(#paint0_linear)"/>
<g opacity="0.6">
<path fill-rule="evenodd" clip-rule="evenodd" d="M99.9121 144.829C100.887 144.935 101.87 144.941 102.846 144.847L102.918 146.224C102.94 146.634 103.557 146.961 104.312 146.961L101.378 147.546L98.4448 146.961C99.1994 146.961 99.8171 146.634 99.8387 146.224L99.9121 144.829Z" fill="url(#paint1_linear)"/>
<path d="M106.882 143.288L105.289 140.127C105.501 140.059 105.713 139.985 105.922 139.905C106.157 139.815 106.263 139.544 106.15 139.32L104.48 136.005C104.733 135.93 104.985 135.845 105.233 135.75C105.432 135.674 105.522 135.445 105.427 135.256L101.541 127.545C101.51 127.485 101.423 127.485 101.393 127.545L97.5073 135.256C97.4121 135.445 97.5017 135.674 97.7005 135.75C97.9491 135.845 98.2004 135.93 98.454 136.006L96.7835 139.32C96.6708 139.544 96.7768 139.815 97.0119 139.905C97.2213 139.985 97.4324 140.059 97.645 140.127L96.0523 143.288C95.922 143.546 96.0445 143.86 96.3163 143.963C99.6315 145.23 103.302 145.23 106.618 143.963C106.889 143.86 107.012 143.546 106.882 143.288Z" fill="url(#paint2_linear)"/>
<path fill-rule="evenodd" clip-rule="evenodd" d="M74.8386 141.635C75.5459 141.712 76.2592 141.716 76.9672 141.649L77.0197 142.648C77.0354 142.945 77.4836 143.182 78.0312 143.182L75.9025 143.606L73.7739 143.182C74.3215 143.182 74.7697 142.945 74.7854 142.648L74.8386 141.635Z" fill="url(#paint3_linear)"/>
<path d="M79.896 140.456L78.7403 138.163C78.8944 138.113 79.0477 138.059 79.1997 138.001C79.3703 137.936 79.4472 137.739 79.3654 137.577L78.1533 135.172C78.3372 135.117 78.5196 135.055 78.7 134.986C78.8442 134.931 78.9092 134.765 78.8401 134.628L76.0206 129.033C75.9985 128.989 75.9354 128.989 75.9133 129.033L73.0938 134.628C73.0246 134.765 73.0896 134.931 73.2339 134.986C73.4143 135.055 73.5967 135.117 73.7807 135.172L72.5685 137.577C72.4867 137.739 72.5636 137.936 72.7342 138.001C72.8862 138.059 73.0394 138.113 73.1936 138.163L72.0379 140.456C71.9434 140.643 72.0323 140.871 72.2295 140.946C74.6351 141.865 77.2988 141.865 79.7044 140.946C79.9016 140.871 79.9905 140.643 79.896 140.456Z" fill="url(#paint4_linear)"/>
<path fill-rule="evenodd" clip-rule="evenodd" d="M110.378 140.828C111.719 140.973 113.07 140.981 114.412 140.853L114.511 142.746C114.541 143.31 115.39 143.759 116.428 143.759L112.394 144.563L108.361 143.759C109.398 143.759 110.248 143.31 110.277 142.746L110.378 140.828Z" fill="url(#paint5_linear)"/>
<path d="M119.962 138.708L117.772 134.362C118.064 134.268 118.355 134.167 118.643 134.057C118.966 133.933 119.112 133.56 118.957 133.253L116.66 128.695C117.009 128.591 117.354 128.474 117.696 128.343C117.969 128.239 118.092 127.924 117.961 127.664L112.619 117.062C112.577 116.979 112.457 116.979 112.415 117.062L107.073 127.664C106.942 127.924 107.065 128.239 107.338 128.344C107.68 128.474 108.026 128.591 108.374 128.695L106.077 133.253C105.922 133.56 106.068 133.933 106.391 134.057C106.679 134.167 106.97 134.269 107.262 134.362L105.072 138.708C104.893 139.063 105.061 139.495 105.435 139.637C109.993 141.379 115.041 141.379 119.599 139.637C119.973 139.494 120.141 139.063 119.962 138.708Z" fill="url(#paint6_linear)"/>
<path fill-rule="evenodd" clip-rule="evenodd" d="M123.568 145.242C125.579 145.459 127.606 145.472 129.618 145.279L129.768 148.119C129.812 148.965 131.086 149.638 132.643 149.638L126.592 150.844L120.542 149.638C122.098 149.638 123.372 148.965 123.417 148.119L123.568 145.242Z" fill="url(#paint7_linear)"/>
<path d="M137.943 142.062L134.658 135.544C135.097 135.403 135.532 135.25 135.964 135.085C136.449 134.9 136.668 134.34 136.435 133.879L132.99 127.043C133.513 126.887 134.031 126.711 134.544 126.515C134.954 126.359 135.139 125.886 134.942 125.496L126.928 109.593C126.865 109.469 126.686 109.469 126.623 109.593L118.609 125.496C118.412 125.886 118.597 126.359 119.007 126.515C119.52 126.711 120.038 126.887 120.561 127.043L117.116 133.879C116.884 134.34 117.102 134.9 117.587 135.085C118.019 135.25 118.454 135.403 118.893 135.544L115.608 142.062C115.339 142.595 115.592 143.242 116.152 143.456C122.99 146.068 130.561 146.068 137.399 143.456C137.959 143.242 138.212 142.595 137.943 142.062Z" fill="url(#paint8_linear)"/>
<path fill-rule="evenodd" clip-rule="evenodd" d="M62.3783 146.828C63.7186 146.973 65.0702 146.981 66.4118 146.852L66.5114 148.746C66.5411 149.31 67.3904 149.759 68.4279 149.759L64.3944 150.562L60.3608 149.759C61.3984 149.759 62.2477 149.31 62.2774 148.746L62.3783 146.828Z" fill="url(#paint9_linear)"/>
<path d="M71.9622 144.708L69.7723 140.362C70.0644 140.268 70.3548 140.167 70.6428 140.057C70.966 139.933 71.1117 139.56 70.9569 139.253L68.6599 134.695C69.0085 134.591 69.3541 134.474 69.696 134.343C69.9692 134.239 70.0924 133.924 69.9615 133.664L64.6186 123.062C64.5768 122.979 64.4573 122.979 64.4155 123.062L59.0726 133.664C58.9416 133.924 59.0648 134.239 59.3381 134.344C59.6799 134.474 60.0256 134.591 60.3742 134.695L58.0772 139.253C57.9223 139.56 58.0681 139.933 58.3913 140.057C58.6793 140.167 58.9696 140.269 59.2618 140.362L57.0719 144.708C56.8928 145.063 57.0612 145.494 57.4349 145.637C61.9933 147.378 67.0408 147.378 71.5992 145.637C71.9728 145.494 72.1413 145.063 71.9622 144.708Z" fill="url(#paint10_linear)"/>
<path fill-rule="evenodd" clip-rule="evenodd" d="M48.9157 141.525C50.6388 141.711 52.3767 141.722 54.1015 141.557L54.2296 143.991C54.2678 144.716 55.3598 145.293 56.6938 145.293L51.5078 146.327L46.3218 145.293C47.6558 145.293 48.7477 144.716 48.7859 143.991L48.9157 141.525Z" fill="url(#paint11_linear)"/>
<path d="M61.2372 138.799L58.4215 133.212C58.7971 133.091 59.1704 132.96 59.5407 132.819C59.9563 132.66 60.1437 132.18 59.9445 131.785L56.9913 125.925C57.4395 125.792 57.8839 125.641 58.3234 125.473C58.6747 125.339 58.8331 124.934 58.6647 124.6L51.7954 110.969C51.7416 110.862 51.588 110.862 51.5342 110.969L44.6647 124.6C44.4963 124.934 44.6547 125.339 45.0062 125.473C45.4456 125.641 45.8901 125.792 46.3383 125.925L43.385 131.785C43.1859 132.18 43.3732 132.66 43.7888 132.819C44.1591 132.96 44.5324 133.091 44.9081 133.212L42.0924 138.799C41.8621 139.256 42.0787 139.81 42.5592 139.994C48.4199 142.233 54.9097 142.233 60.7703 139.994C61.2508 139.81 61.4674 139.256 61.2372 138.799Z" fill="url(#paint12_linear)"/>
</g>
<g filter="url(#filter0_d)">
<path d="M106.874 59.746C105.996 57.7418 103.663 56.8287 101.66 57.7066L90.3203 62.6803C88.7495 63.3691 87.8008 64.9929 87.9708 66.7016L91.2129 99.2758C80.6419 96.7844 70.0106 106.414 73.2485 115.664C75.4234 121.877 83.0242 124.825 90.3473 122.248C97.1734 119.846 101.244 113.417 99.9044 107.517C99.9688 106.91 100.19 109.541 96.1332 68.7832L104.838 64.9652C106.84 64.0871 107.751 61.7505 106.874 59.746Z" fill="#F5B81F"/>
<path d="M106.874 59.746C105.996 57.7418 103.663 56.8287 101.66 57.7066L90.3203 62.6803C88.7495 63.3691 87.8008 64.9929 87.9708 66.7016L91.2129 99.2758C80.6419 96.7844 70.0106 106.414 73.2485 115.664C75.4234 121.877 83.0242 124.825 90.3473 122.248C97.1734 119.846 101.244 113.417 99.9044 107.517C99.9688 106.91 100.19 109.541 96.1332 68.7832L104.838 64.9652C106.84 64.0871 107.751 61.7505 106.874 59.746Z" fill="url(#paint13_linear)"/>
</g>
<g opacity="0.4" filter="url(#filter1_f)">
<ellipse cx="90" cy="156.75" rx="36" ry="5.25" fill="url(#paint14_linear)"/>
</g>
<defs>
<filter id="filter0_d" x="64.6572" y="52.3728" width="50.5504" height="81.8079" filterUnits="userSpaceOnUse" color-interpolation-filters="sRGB">
<feFlood flood-opacity="0" result="BackgroundImageFix"/>
<feColorMatrix in="SourceAlpha" type="matrix" values="0 0 0 0 0 0 0 0 0 0 0 0 0 0 0 0 0 0 127 0"/>
<feOffset dy="3"/>
<feGaussianBlur stdDeviation="4"/>
<feColorMatrix type="matrix" values="0 0 0 0 0.468403 0 0 0 0 0.591667 0 0 0 0 0.532714 0 0 0 0.16 0"/>
<feBlend mode="normal" in2="BackgroundImageFix" result="effect1_dropShadow"/>
<feBlend mode="normal" in="SourceGraphic" in2="effect1_dropShadow" result="shape"/>
</filter>
<filter id="filter1_f" x="52" y="149.5" width="76" height="14.5" filterUnits="userSpaceOnUse" color-interpolation-filters="sRGB">
<feFlood flood-opacity="0" result="BackgroundImageFix"/>
<feBlend mode="normal" in="SourceGraphic" in2="BackgroundImageFix" result="shape"/>
<feGaussianBlur stdDeviation="1" result="effect1_foregroundBlur"/>
</filter>
<linearGradient id="paint0_linear" x1="89.5251" y1="25.3888" x2="89.5251" y2="161.889" gradientUnits="userSpaceOnUse">
<stop stop-color="#C8DFD4" stop-opacity="0.4"/>
<stop offset="1" stop-color="#E4F7ED" stop-opacity="0.2"/>
</linearGradient>
<linearGradient id="paint1_linear" x1="101.378" y1="143.145" x2="101.378" y2="147.553" gradientUnits="userSpaceOnUse">
<stop stop-color="#C8DFD4"/>
<stop offset="1" stop-color="#E4F7ED" stop-opacity="0.5"/>
</linearGradient>
<linearGradient id="paint2_linear" x1="101.467" y1="127.5" x2="101.467" y2="144.943" gradientUnits="userSpaceOnUse">
<stop stop-color="#C8DFD4"/>
<stop offset="1" stop-color="#E4F7ED" stop-opacity="0.5"/>
</linearGradient>
<linearGradient id="paint3_linear" x1="75.9025" y1="140.414" x2="75.9025" y2="143.612" gradientUnits="userSpaceOnUse">
<stop stop-color="#C8DFD4"/>
<stop offset="1" stop-color="#E4F7ED" stop-opacity="0.5"/>
</linearGradient>
<linearGradient id="paint4_linear" x1="75.9669" y1="129" x2="75.9669" y2="141.657" gradientUnits="userSpaceOnUse">
<stop stop-color="#C8DFD4"/>
<stop offset="1" stop-color="#E4F7ED" stop-opacity="0.5"/>
</linearGradient>
<linearGradient id="paint5_linear" x1="112.394" y1="138.512" x2="112.394" y2="144.573" gradientUnits="userSpaceOnUse">
<stop stop-color="#C8DFD4"/>
<stop offset="1" stop-color="#E4F7ED" stop-opacity="0.5"/>
</linearGradient>
<linearGradient id="paint6_linear" x1="112.517" y1="117" x2="112.517" y2="140.984" gradientUnits="userSpaceOnUse">
<stop stop-color="#C8DFD4"/>
<stop offset="1" stop-color="#E4F7ED" stop-opacity="0.5"/>
</linearGradient>
<linearGradient id="paint7_linear" x1="126.592" y1="141.768" x2="126.592" y2="150.859" gradientUnits="userSpaceOnUse">
<stop stop-color="#C8DFD4"/>
<stop offset="1" stop-color="#E4F7ED" stop-opacity="0.5"/>
</linearGradient>
<linearGradient id="paint8_linear" x1="126.776" y1="109.5" x2="126.776" y2="145.476" gradientUnits="userSpaceOnUse">
<stop stop-color="#C8DFD4"/>
<stop offset="1" stop-color="#E4F7ED" stop-opacity="0.5"/>
</linearGradient>
<linearGradient id="paint9_linear" x1="64.3944" y1="144.512" x2="64.3944" y2="150.573" gradientUnits="userSpaceOnUse">
<stop stop-color="#C8DFD4"/>
<stop offset="1" stop-color="#E4F7ED" stop-opacity="0.5"/>
</linearGradient>
<linearGradient id="paint10_linear" x1="64.517" y1="123" x2="64.517" y2="146.984" gradientUnits="userSpaceOnUse">
<stop stop-color="#C8DFD4"/>
<stop offset="1" stop-color="#E4F7ED" stop-opacity="0.5"/>
</linearGradient>
<linearGradient id="paint11_linear" x1="51.5078" y1="138.548" x2="51.5078" y2="146.34" gradientUnits="userSpaceOnUse">
<stop stop-color="#C8DFD4"/>
<stop offset="1" stop-color="#E4F7ED" stop-opacity="0.5"/>
</linearGradient>
<linearGradient id="paint12_linear" x1="51.6648" y1="110.889" x2="51.6648" y2="141.725" gradientUnits="userSpaceOnUse">
<stop stop-color="#C8DFD4"/>
<stop offset="1" stop-color="#E4F7ED" stop-opacity="0.5"/>
</linearGradient>
<linearGradient id="paint13_linear" x1="118.1" y1="49.2245" x2="101.114" y2="113.585" gradientUnits="userSpaceOnUse">
<stop stop-color="#FFE58A"/>
<stop offset="1" stop-color="white" stop-opacity="0"/>
<stop offset="1" stop-color="#F9C543" stop-opacity="0"/>
</linearGradient>
<linearGradient id="paint14_linear" x1="74.093" y1="159" x2="121.466" y2="149.723" gradientUnits="userSpaceOnUse">
<stop stop-color="#C8DFD4"/>
<stop offset="0.70748" stop-color="#EAF8F1" stop-opacity="0.82"/>
</linearGradient>
</defs>
</svg>
