<svg width="160" height="160" viewBox="0 0 160 160" fill="none" xmlns="http://www.w3.org/2000/svg">
<g clip-path="url(#clip0)">
<rect width="160" height="160" fill="white"/>
<path opacity="0.7" d="M133.333 92.6667C132 114 114.64 129.216 109.814 130.414C97.4813 137.396 95.1898 138.49 86.3438 139.972C63.9516 143.722 40.5963 127.449 38.2563 125.387C27.2305 115.671 14.7604 100.965 24.5341 85.6111C30.6503 76.0029 24.3352 76.5434 34.4068 53.9624C44.4784 31.3814 70.6513 23.5504 86.3433 25.3333C109.814 28 126.987 42.5256 126.987 58.4972C126.987 71.1638 134.41 75.426 133.333 92.6667Z" fill="url(#paint0_linear)"/>
<g opacity="0.6">
<path fill-rule="evenodd" clip-rule="evenodd" d="M107.477 124.737C108.344 124.831 109.217 124.836 110.085 124.753L110.149 125.977C110.168 126.342 110.717 126.632 111.388 126.632L108.78 127.152L106.173 126.632C106.844 126.632 107.393 126.342 107.412 125.977L107.477 124.737Z" fill="url(#paint1_linear)"/>
<path d="M113.673 123.367L112.257 120.558C112.446 120.497 112.633 120.431 112.82 120.36C113.029 120.28 113.123 120.039 113.023 119.84L111.538 116.894C111.763 116.827 111.987 116.751 112.208 116.666C112.384 116.599 112.464 116.395 112.379 116.227L108.925 109.374C108.898 109.32 108.821 109.32 108.794 109.374L105.34 116.227C105.255 116.395 105.335 116.599 105.512 116.667C105.732 116.751 105.956 116.827 106.181 116.894L104.696 119.84C104.596 120.039 104.69 120.28 104.899 120.36C105.086 120.431 105.273 120.497 105.462 120.558L104.046 123.367C103.931 123.596 104.04 123.875 104.281 123.968C107.228 125.093 110.491 125.093 113.438 123.968C113.679 123.875 113.788 123.596 113.673 123.367Z" fill="url(#paint2_linear)"/>
<path fill-rule="evenodd" clip-rule="evenodd" d="M116.781 125.18C117.972 125.309 119.174 125.317 120.366 125.202L120.455 126.885C120.481 127.387 121.236 127.786 122.158 127.786L118.573 128.5L114.988 127.786C115.91 127.786 116.665 127.387 116.691 126.885L116.781 125.18Z" fill="url(#paint3_linear)"/>
<path d="M125.3 123.296L123.353 119.433C123.613 119.35 123.871 119.259 124.127 119.161C124.414 119.052 124.544 118.72 124.406 118.447L122.364 114.396C122.674 114.303 122.981 114.199 123.285 114.083C123.528 113.99 123.638 113.71 123.521 113.479L118.772 104.055C118.735 103.982 118.629 103.982 118.592 104.055L113.842 113.479C113.726 113.71 113.835 113.99 114.078 114.083C114.382 114.199 114.689 114.303 114.999 114.396L112.958 118.447C112.82 118.72 112.949 119.052 113.237 119.161C113.493 119.259 113.751 119.35 114.011 119.433L112.064 123.296C111.905 123.612 112.054 123.995 112.387 124.122C116.438 125.67 120.925 125.67 124.977 124.122C125.309 123.995 125.459 123.612 125.3 123.296Z" fill="url(#paint4_linear)"/>
<path fill-rule="evenodd" clip-rule="evenodd" d="M127.172 123.77C128.959 123.964 130.761 123.975 132.55 123.803L132.683 126.328C132.722 127.08 133.855 127.678 135.238 127.678L129.86 128.75L124.482 127.678C125.865 127.678 126.998 127.08 127.037 126.328L127.172 123.77Z" fill="url(#paint5_linear)"/>
<path d="M139.95 120.944L137.03 115.15C137.419 115.025 137.806 114.889 138.19 114.742C138.621 114.577 138.816 114.08 138.609 113.67L135.547 107.593C136.011 107.455 136.472 107.299 136.928 107.125C137.292 106.985 137.457 106.565 137.282 106.219L130.158 92.0831C130.102 91.9723 129.943 91.9723 129.887 92.0831L122.763 106.219C122.589 106.565 122.753 106.985 123.117 107.125C123.573 107.299 124.034 107.455 124.499 107.593L121.436 113.67C121.23 114.08 121.424 114.577 121.855 114.742C122.239 114.889 122.626 115.025 123.016 115.15L120.096 120.944C119.857 121.418 120.082 121.993 120.58 122.183C126.658 124.505 133.388 124.505 139.466 122.183C139.964 121.992 140.188 121.418 139.95 120.944Z" fill="url(#paint6_linear)"/>
<path fill-rule="evenodd" clip-rule="evenodd" d="M32.6141 127.847C33.8054 127.976 35.0069 127.983 36.1994 127.869L36.2879 129.552C36.3143 130.053 37.0693 130.452 37.9916 130.452L34.4062 131.167L30.8208 130.452C31.7431 130.452 32.498 130.053 32.5244 129.552L32.6141 127.847Z" fill="url(#paint7_linear)"/>
<path d="M41.133 125.963L39.1864 122.1C39.4461 122.016 39.7042 121.926 39.9602 121.828C40.2475 121.718 40.377 121.387 40.2394 121.114L38.1976 117.062C38.5075 116.97 38.8147 116.866 39.1186 116.75C39.3615 116.657 39.471 116.377 39.3546 116.146L34.6054 106.722C34.5682 106.648 34.462 106.648 34.4248 106.722L29.6755 116.146C29.5591 116.377 29.6686 116.657 29.9116 116.75C30.2154 116.866 30.5227 116.97 30.8325 117.062L28.7908 121.114C28.6531 121.387 28.7826 121.718 29.07 121.828C29.326 121.926 29.584 122.016 29.8438 122.1L27.8971 125.963C27.7379 126.279 27.8877 126.662 28.2199 126.789C32.2717 128.336 36.7585 128.336 40.8103 126.789C41.1424 126.662 41.2922 126.278 41.133 125.963Z" fill="url(#paint8_linear)"/>
<path fill-rule="evenodd" clip-rule="evenodd" d="M23.4805 125.898C25.0122 126.064 26.557 126.074 28.0901 125.927L28.204 128.09C28.2379 128.735 29.2086 129.248 30.3943 129.248L25.7846 130.167L21.1748 129.248C22.3606 129.248 23.3312 128.735 23.3652 128.09L23.4805 125.898Z" fill="url(#paint9_linear)"/>
<path d="M34.4329 123.476L31.9301 118.509C32.264 118.402 32.5958 118.286 32.925 118.16C33.2944 118.019 33.461 117.593 33.2839 117.241L30.6589 112.032C31.0573 111.914 31.4523 111.78 31.8429 111.631C32.1552 111.511 32.296 111.151 32.1464 110.854L26.0403 98.7379C25.9925 98.643 25.8559 98.643 25.8081 98.7379L19.7019 110.854C19.5522 111.151 19.693 111.511 20.0054 111.631C20.3961 111.78 20.7911 111.914 21.1895 112.033L18.5644 117.241C18.3874 117.593 18.5539 118.019 18.9233 118.16C19.2525 118.286 19.5842 118.402 19.9182 118.51L17.4154 123.476C17.2107 123.882 17.4032 124.375 17.8303 124.538C23.0398 126.528 28.8085 126.528 34.018 124.538C34.4451 124.375 34.6376 123.882 34.4329 123.476Z" fill="url(#paint10_linear)"/>
</g>
<mask id="mask0" mask-type="alpha" maskUnits="userSpaceOnUse" x="27" y="25" width="106" height="118">
<path d="M132 96.6667C130.667 118 126.826 138.774 122 139.972C109.667 146.955 95.1897 138.49 86.3437 139.972C63.9515 143.722 45.6732 142.034 43.3332 139.972C32.3074 130.256 27.9998 119.056 27.9998 94.6667C27.9998 83.277 24.3352 76.5434 34.4067 53.9624C44.4783 31.3814 70.6512 23.5504 86.3433 25.3333C109.814 28 126.987 42.5255 126.987 58.4972C126.987 71.1638 133.077 79.4261 132 96.6667Z" fill="url(#paint11_linear)"/>
</mask>
<g mask="url(#mask0)">
<g filter="url(#filter0_d)">
<path d="M103.684 61.6043V62.7846C103.684 64.2308 103.918 65.6675 104.375 67.0394L107.048 75.0593H112.094V56.5585H108.73C105.943 56.5587 103.684 58.8176 103.684 61.6043Z" fill="#5A4146"/>
<path d="M103.818 77.6126C101.503 71.407 99.6665 60.7392 99.2699 55.1851C98.5154 44.6158 90.6426 36 80 36C69.3574 36 61.4846 44.6161 60.7301 55.1851C60.3334 60.7389 58.4974 71.407 56.1823 77.6126C55.6722 78.9807 56.261 80.4891 57.5926 81.0998C60.0733 82.2372 65.3624 84.4655 71.7414 85.3333H88.2583C94.6074 84.4635 99.9336 82.2338 102.407 81.0998C103.739 80.4891 104.328 78.9807 103.818 77.6126Z" fill="#5A4146"/>
<path d="M102.411 81.0998C103.739 80.4891 104.327 78.9807 103.818 77.6127C101.509 71.407 99.6769 60.7392 99.2815 55.1851C98.5292 44.6158 90.675 36 80.0584 36C80.0316 36 80.0051 36 79.9782 36.0003C71.8318 36.0339 68.9529 47.3011 75.9657 51.5051C76.3869 51.7577 76.6569 51.8791 76.6569 51.8791L82.7992 85.3333H88.2968C94.6305 84.4628 99.9439 82.2335 102.411 81.0998Z" fill="#694B4B"/>
<path d="M102.411 81.0998C103.739 80.4891 104.327 78.9807 103.818 77.6127C101.509 71.407 99.6769 60.7392 99.2815 55.1851C98.5292 44.6158 90.675 36 80.0584 36C80.0316 36 80.0051 36 79.9782 36.0003C71.8318 36.0339 68.9529 47.3011 75.9657 51.5051C76.3869 51.7577 76.6569 51.8791 76.6569 51.8791L82.7992 85.3333H88.2968C94.6305 84.4628 99.9439 82.2335 102.411 81.0998Z" fill="url(#paint12_linear)"/>
<path d="M90.1884 68.5529H70.0051V97.0195H90.1884V68.5529Z" fill="#F0C087"/>
<path d="M90.1884 68.5529H70.0051V97.0195H90.1884V68.5529Z" fill="url(#paint13_linear)"/>
<path d="M126.714 65.0982L123.868 75.0594L110.413 63.2864C108.555 63.2864 107.05 61.7802 107.05 59.9226C107.05 57.1361 109.309 54.877 112.095 54.877H123.868C125.726 54.877 127.232 56.3831 127.232 58.2407V61.402C127.232 62.6519 127.058 63.8959 126.714 65.0982Z" fill="#694B4B"/>
<path d="M126.714 65.0982L123.868 75.0594L110.413 63.2864C108.555 63.2864 107.05 61.7802 107.05 59.9226C107.05 57.1361 109.309 54.877 112.095 54.877H123.868C125.726 54.877 127.232 56.3831 127.232 58.2407V61.402C127.232 62.6519 127.058 63.8959 126.714 65.0982Z" fill="url(#paint14_linear)"/>
<path d="M120.503 78.7728H110.411V86.2165H120.503V78.7728Z" fill="#F0C087"/>
<path d="M120.503 78.7728H110.411V86.2165H120.503V78.7728Z" fill="url(#paint15_linear)"/>
<path d="M128.618 85.1701L120.504 82.852L115.459 86.2001L110.413 82.8518L102.299 85.1701C100.133 85.7891 98.6399 87.7689 98.6399 90.0216V142.318C98.6399 143.247 99.3928 144 100.322 144H130.596C131.525 144 132.277 143.247 132.277 142.318V90.0216C132.277 87.7687 130.784 85.7891 128.618 85.1701Z" fill="url(#paint16_linear)"/>
<path d="M115.457 81.7871C109.884 81.7871 105.366 77.2689 105.366 71.6958V69.7254C105.366 68.8333 105.72 67.9777 106.351 67.3468L109.401 64.2969C110.047 63.6511 110.93 63.2798 111.843 63.3085C117.219 63.4782 121.978 64.6299 124.579 67.1706C125.216 67.7926 125.549 68.6627 125.549 69.5527V71.6958C125.549 77.2691 121.03 81.7871 115.457 81.7871Z" fill="#F0C087"/>
<path d="M115.457 81.7871C109.884 81.7871 105.366 77.2689 105.366 71.6958V69.7254C105.366 68.8333 105.72 67.9777 106.351 67.3468L109.401 64.2969C110.047 63.6511 110.93 63.2798 111.843 63.3085C117.219 63.4782 121.978 64.6299 124.579 67.1706C125.216 67.7926 125.549 68.6627 125.549 69.5527V71.6958C125.549 77.2691 121.03 81.7871 115.457 81.7871Z" fill="url(#paint17_linear)"/>
<path d="M55.4846 87.866L50.0419 85.1448C48.9022 84.575 48.1822 83.41 48.1824 82.1359L48.1828 77.0901H38.0912V82.1361C38.0912 83.4102 37.3715 84.5748 36.2317 85.1446L30.789 87.866C29.0796 88.7206 28 90.4676 28 92.3786V102.318C28 103.247 28.753 104 29.6819 104H56.592C57.5209 104 58.2738 103.247 58.2738 102.318V92.3788C58.2738 90.4676 57.194 88.7206 55.4846 87.866Z" fill="#F0C087"/>
<path d="M55.4846 87.866L50.0419 85.1448C48.9022 84.575 48.1822 83.41 48.1824 82.1359L48.1828 77.0901H38.0912V82.1361C38.0912 83.4102 37.3715 84.5748 36.2317 85.1446L30.789 87.866C29.0796 88.7206 28 90.4676 28 92.3786V102.318C28 103.247 28.753 104 29.6819 104H56.592C57.5209 104 58.2738 103.247 58.2738 102.318V92.3788C58.2738 90.4676 57.194 88.7206 55.4846 87.866Z" fill="url(#paint18_linear)"/>
<path d="M55.4846 87.866L51.6073 85.9273C49.8093 88.7037 46.691 90.545 43.137 90.545C39.5831 90.545 36.4645 88.7037 34.6666 85.9271L30.7892 87.866C29.0798 88.7206 28 90.4676 28 92.3786V142.318C28 143.247 28.753 144 29.6819 144H56.592C57.5209 144 58.2738 143.247 58.2738 142.318V92.3788C58.2738 90.4676 57.194 88.7206 55.4846 87.866Z" fill="url(#paint19_linear)"/>
<path d="M79.966 80C71.7926 80 65.0442 73.5193 64.0238 65.1306C63.8758 63.9151 64.4258 62.7234 65.4556 62.1716C66.6891 61.5104 68.4817 60.3956 70.198 58.7685C72.1093 56.9567 73.2306 55.0459 73.8639 53.6432C74.4093 52.4354 75.6629 51.7521 76.8848 52.0834C86.3183 54.6398 92.7407 59.8544 95.0709 61.9833C95.6964 62.5549 96.0569 63.3977 95.9926 64.2719C95.3434 73.0726 88.4162 80 79.966 80Z" fill="#F0C087"/>
<path d="M79.966 80C71.7926 80 65.0442 73.5193 64.0238 65.1306C63.8758 63.9151 64.4258 62.7234 65.4556 62.1716C66.6891 61.5104 68.4817 60.3956 70.198 58.7685C72.1093 56.9567 73.2306 55.0459 73.8639 53.6432C74.4093 52.4354 75.6629 51.7521 76.8848 52.0834C86.3183 54.6398 92.7407 59.8544 95.0709 61.9833C95.6964 62.5549 96.0569 63.3977 95.9926 64.2719C95.3434 73.0726 88.4162 80 79.966 80Z" fill="url(#paint20_linear)"/>
<path d="M104.301 85.5707L90.2287 81.7867C90.2287 81.7867 92.6666 85.5711 80 85.5709C67.3333 85.5707 70.0463 81.7869 70.0463 81.7869C70.0463 81.7869 58.7207 85.5711 55.9741 85.5709C53.2274 85.5707 53.2274 85.5709 52.0001 91.3334C50.7728 97.0958 50.5631 125.028 51.5456 142.318C51.5456 143.247 52.2985 144 53.2274 144H107.048C107.977 144 108.729 143.247 108.729 142.318C110.367 123.002 109.27 100.667 108 91.8933C106.729 83.1199 106.96 86.5375 104.301 85.5707Z" fill="url(#paint21_linear)"/>
<path d="M84.6667 91.9846C81.4338 92.292 80.6667 87.3621 80.6667 85.3333C88.6668 84.7247 90.2223 82.8549 90.0001 81.3333C92.0001 81.8405 96.6668 83.1592 96.6668 84.3765C96.6668 85.8981 92.6668 91.2238 84.6667 91.9846Z" fill="url(#paint22_linear)"/>
<path d="M75.3333 91.9846C78.5662 92.292 79.3333 87.3621 79.3333 85.3333C71.3333 84.7247 69.7777 82.8549 69.9999 81.3333C67.9999 81.8405 63.3333 83.1592 63.3333 84.3765C63.3333 85.8981 67.3333 91.2238 75.3333 91.9846Z" fill="url(#paint23_linear)"/>
<path d="M53.3333 66.3773V58C53.3333 56.8954 52.465 56 51.394 56H39.7576C35.4733 56 32 59.5817 32 64.0001V66.3773C32 67.4521 32.168 68.5199 32.4976 69.5395L32.8204 70.5382C32.9193 70.844 32.9697 71.1643 32.9697 71.4868V72H52.3635V71.4868C52.3635 71.1643 52.4139 70.844 52.5128 70.5382L52.8356 69.5395C53.1653 68.5198 53.3333 67.452 53.3333 66.3773Z" fill="#5A4146"/>
<path d="M37.3333 60.0625C37.3333 62.3061 39.1878 64.125 41.4754 64.125H42.0489L42.3257 72H53.647V71.4868C53.647 71.1643 53.6999 70.844 53.8039 70.5381L54.1433 69.5395C54.4899 68.5199 54.6666 67.452 54.6666 66.3772V58C54.6666 56.8954 53.7535 56 52.6274 56H41.4754C39.1878 56 37.3333 57.8188 37.3333 60.0625Z" fill="#694B4B"/>
<path d="M37.3333 60.0625C37.3333 62.3061 39.1878 64.125 41.4754 64.125H42.0489L42.3257 72H53.647V71.4868C53.647 71.1643 53.6999 70.844 53.8039 70.5381L54.1433 69.5395C54.4899 68.5199 54.6666 67.452 54.6666 66.3772V58C54.6666 56.8954 53.7535 56 52.6274 56H41.4754C39.1878 56 37.3333 57.8188 37.3333 60.0625Z" fill="url(#paint24_linear)"/>
<path d="M43.3334 82.6667C37.8105 82.6667 33.3333 78.243 33.3333 72.7862V71.6286C33.3333 71.1046 33.544 70.602 33.919 70.2313L34.7474 69.4128C35.1224 69.0423 35.3331 68.5396 35.3331 68.0155V65.647C35.3331 65.1894 35.6441 64.792 36.0947 64.6868C38.4598 64.1349 45.8196 62.8275 50.8283 66.4671C51.1535 66.7034 51.3334 67.0917 51.3334 67.4906V68.0155C51.3334 68.5395 51.5441 69.0421 51.9191 69.4128L52.7475 70.2313C53.1225 70.6018 53.3333 71.1045 53.3333 71.6286V72.7862C53.3336 78.243 48.8564 82.6667 43.3334 82.6667Z" fill="#F0C087"/>
<path d="M43.3334 82.6667C37.8105 82.6667 33.3333 78.243 33.3333 72.7862V71.6286C33.3333 71.1046 33.544 70.602 33.919 70.2313L34.7474 69.4128C35.1224 69.0423 35.3331 68.5396 35.3331 68.0155V65.647C35.3331 65.1894 35.6441 64.792 36.0947 64.6868C38.4598 64.1349 45.8196 62.8275 50.8283 66.4671C51.1535 66.7034 51.3334 67.0917 51.3334 67.4906V68.0155C51.3334 68.5395 51.5441 69.0421 51.9191 69.4128L52.7475 70.2313C53.1225 70.6018 53.3333 71.1045 53.3333 71.6286V72.7862C53.3336 78.243 48.8564 82.6667 43.3334 82.6667Z" fill="url(#paint25_linear)"/>
</g>
</g>
</g>
<defs>
<filter id="filter0_d" x="20" y="31" width="120.277" height="124" filterUnits="userSpaceOnUse" color-interpolation-filters="sRGB">
<feFlood flood-opacity="0" result="BackgroundImageFix"/>
<feColorMatrix in="SourceAlpha" type="matrix" values="0 0 0 0 0 0 0 0 0 0 0 0 0 0 0 0 0 0 127 0"/>
<feOffset dy="3"/>
<feGaussianBlur stdDeviation="4"/>
<feColorMatrix type="matrix" values="0 0 0 0 0.468403 0 0 0 0 0.591667 0 0 0 0 0.532714 0 0 0 0.16 0"/>
<feBlend mode="normal" in2="BackgroundImageFix" result="effect1_dropShadow"/>
<feBlend mode="normal" in="SourceGraphic" in2="effect1_dropShadow" result="shape"/>
</filter>
<linearGradient id="paint0_linear" x1="113.46" y1="31.5776" x2="48.3049" y2="133.933" gradientUnits="userSpaceOnUse">
<stop stop-color="#C8DFD4" stop-opacity="0.4"/>
<stop offset="1" stop-color="#E4F7ED" stop-opacity="0.2"/>
</linearGradient>
<linearGradient id="paint1_linear" x1="108.78" y1="123.24" x2="108.78" y2="127.158" gradientUnits="userSpaceOnUse">
<stop stop-color="#C8DFD4"/>
<stop offset="1" stop-color="#E4F7ED" stop-opacity="0.5"/>
</linearGradient>
<linearGradient id="paint2_linear" x1="108.86" y1="109.333" x2="108.86" y2="124.838" gradientUnits="userSpaceOnUse">
<stop stop-color="#C8DFD4"/>
<stop offset="1" stop-color="#E4F7ED" stop-opacity="0.5"/>
</linearGradient>
<linearGradient id="paint3_linear" x1="118.573" y1="123.122" x2="118.573" y2="128.509" gradientUnits="userSpaceOnUse">
<stop stop-color="#C8DFD4"/>
<stop offset="1" stop-color="#E4F7ED" stop-opacity="0.5"/>
</linearGradient>
<linearGradient id="paint4_linear" x1="118.682" y1="104" x2="118.682" y2="125.319" gradientUnits="userSpaceOnUse">
<stop stop-color="#C8DFD4"/>
<stop offset="1" stop-color="#E4F7ED" stop-opacity="0.5"/>
</linearGradient>
<linearGradient id="paint5_linear" x1="129.86" y1="120.683" x2="129.86" y2="128.764" gradientUnits="userSpaceOnUse">
<stop stop-color="#C8DFD4"/>
<stop offset="1" stop-color="#E4F7ED" stop-opacity="0.5"/>
</linearGradient>
<linearGradient id="paint6_linear" x1="130.023" y1="92" x2="130.023" y2="123.978" gradientUnits="userSpaceOnUse">
<stop stop-color="#C8DFD4"/>
<stop offset="1" stop-color="#E4F7ED" stop-opacity="0.5"/>
</linearGradient>
<linearGradient id="paint7_linear" x1="34.4062" y1="125.789" x2="34.4062" y2="131.176" gradientUnits="userSpaceOnUse">
<stop stop-color="#C8DFD4"/>
<stop offset="1" stop-color="#E4F7ED" stop-opacity="0.5"/>
</linearGradient>
<linearGradient id="paint8_linear" x1="34.5151" y1="106.667" x2="34.5151" y2="127.986" gradientUnits="userSpaceOnUse">
<stop stop-color="#C8DFD4"/>
<stop offset="1" stop-color="#E4F7ED" stop-opacity="0.5"/>
</linearGradient>
<linearGradient id="paint9_linear" x1="25.7846" y1="123.252" x2="25.7846" y2="130.179" gradientUnits="userSpaceOnUse">
<stop stop-color="#C8DFD4"/>
<stop offset="1" stop-color="#E4F7ED" stop-opacity="0.5"/>
</linearGradient>
<linearGradient id="paint10_linear" x1="25.9242" y1="98.6667" x2="25.9242" y2="126.077" gradientUnits="userSpaceOnUse">
<stop stop-color="#C8DFD4"/>
<stop offset="1" stop-color="#E4F7ED" stop-opacity="0.5"/>
</linearGradient>
<linearGradient id="paint11_linear" x1="79.3332" y1="94.6667" x2="79.3332" y2="130.667" gradientUnits="userSpaceOnUse">
<stop/>
<stop offset="1" stop-opacity="0"/>
</linearGradient>
<linearGradient id="paint12_linear" x1="88" y1="36" x2="58.1508" y2="77.2807" gradientUnits="userSpaceOnUse">
<stop stop-color="#694B4B"/>
<stop offset="1" stop-color="#5A4146"/>
</linearGradient>
<linearGradient id="paint13_linear" x1="86.3981" y1="70.4329" x2="57.861" y2="97.1843" gradientUnits="userSpaceOnUse">
<stop stop-color="#FFDBAF"/>
<stop offset="1" stop-color="#E6AF78"/>
</linearGradient>
<linearGradient id="paint14_linear" x1="117.141" y1="54.877" x2="107.253" y2="75.9575" gradientUnits="userSpaceOnUse">
<stop stop-color="#694B4B"/>
<stop offset="1" stop-color="#5A4146"/>
</linearGradient>
<linearGradient id="paint15_linear" x1="118.608" y1="79.2644" x2="114.782" y2="86.6615" gradientUnits="userSpaceOnUse">
<stop stop-color="#FFDBAF"/>
<stop offset="1" stop-color="#E6AF78"/>
</linearGradient>
<linearGradient id="paint16_linear" x1="115.328" y1="100.794" x2="132.277" y2="75.3695" gradientUnits="userSpaceOnUse">
<stop stop-color="#E8B73C"/>
<stop offset="1" stop-color="#FFE589"/>
</linearGradient>
<linearGradient id="paint17_linear" x1="121.758" y1="64.5275" x2="111.177" y2="81.0108" gradientUnits="userSpaceOnUse">
<stop stop-color="#FFDBAF"/>
<stop offset="1" stop-color="#F0C087"/>
</linearGradient>
<linearGradient id="paint18_linear" x1="52.5886" y1="78.8673" x2="37.3758" y2="103.28" gradientUnits="userSpaceOnUse">
<stop stop-color="#FFDBAF"/>
<stop offset="1" stop-color="#E6AF78"/>
</linearGradient>
<linearGradient id="paint19_linear" x1="42.2591" y1="98.0711" x2="58.4056" y2="69.2953" gradientUnits="userSpaceOnUse">
<stop stop-color="#1C3F52"/>
<stop offset="1" stop-color="#C6E1EA"/>
</linearGradient>
<linearGradient id="paint20_linear" x1="89.9906" y1="53.8493" x2="74.2724" y2="79.4729" gradientUnits="userSpaceOnUse">
<stop stop-color="#FFDBAF"/>
<stop offset="1" stop-color="#F0C087"/>
</linearGradient>
<linearGradient id="paint21_linear" x1="96.4371" y1="79.3056" x2="89.4026" y2="104.285" gradientUnits="userSpaceOnUse">
<stop stop-color="#FFB1CD"/>
<stop offset="1" stop-color="#CF7681"/>
</linearGradient>
<linearGradient id="paint22_linear" x1="87.3334" y1="90.6667" x2="87.3334" y2="84" gradientUnits="userSpaceOnUse">
<stop stop-color="#EECACA"/>
<stop offset="1" stop-color="#FFF0F0"/>
</linearGradient>
<linearGradient id="paint23_linear" x1="70.6666" y1="88.6667" x2="78.6666" y2="84" gradientUnits="userSpaceOnUse">
<stop stop-color="#EECACA"/>
<stop offset="1" stop-color="#FFF0F0"/>
</linearGradient>
<linearGradient id="paint24_linear" x1="45.9999" y1="56" x2="38.5663" y2="73.17" gradientUnits="userSpaceOnUse">
<stop stop-color="#694B4B"/>
<stop offset="1" stop-color="#5A4146"/>
</linearGradient>
<linearGradient id="paint25_linear" x1="49.5774" y1="65.2328" x2="38.8057" y2="81.6951" gradientUnits="userSpaceOnUse">
<stop stop-color="#FFDBAF"/>
<stop offset="1" stop-color="#F0C087"/>
</linearGradient>
<clipPath id="clip0">
<rect width="160" height="160" fill="white"/>
</clipPath>
</defs>
</svg>
