<svg width="200" height="195" viewBox="0 0 200 195" fill="none" xmlns="http://www.w3.org/2000/svg">
<mask id="mask0" mask-type="alpha" maskUnits="userSpaceOnUse" x="-3" y="0" width="213" height="216">
<path d="M165 115.833C163.334 142.5 158.533 168.467 152.501 169.965C137.085 178.693 118.988 168.113 107.93 169.965C79.9398 174.652 57.0919 172.542 54.1668 169.965C40.3846 157.82 35.0002 143.819 35.0002 113.333C35.0002 99.0961 30.4193 90.6791 43.0088 62.4528C55.5982 34.2266 88.3144 24.4378 107.929 26.6665C137.267 29.9998 158.734 48.1568 158.734 68.1213C158.734 83.9546 166.347 94.2824 165 115.833Z" fill="url(#paint0_linear)"/>
</mask>
<g mask="url(#mask0)">
<g filter="url(#filter0_d)">
<path d="M129.605 72.0055V73.4808C129.605 75.2886 129.897 77.0844 130.468 78.7993L133.81 88.8242H140.117V65.6982H135.912C132.429 65.6985 129.605 68.5221 129.605 72.0055Z" fill="#52646D"/>
<path d="M129.772 92.0158C126.878 84.2588 124.583 70.924 124.087 63.9813C123.144 50.7697 113.303 40 100 40C86.6968 40 76.8557 50.7701 75.9126 63.9813C75.4168 70.9236 73.1217 84.2588 70.2279 92.0158C69.5902 93.7259 70.3263 95.6114 71.9907 96.3747C75.0916 97.7965 81.7031 100.582 89.6767 101.667H110.323C118.259 100.579 124.917 97.7923 128.009 96.3747C129.674 95.6114 130.41 93.7259 129.772 92.0158Z" fill="#52646D"/>
<path d="M128.014 96.3747C129.674 95.6114 130.409 93.7259 129.772 92.0158C126.886 84.2588 124.596 70.924 124.102 63.9813C123.161 50.7697 113.344 40 100.073 40C100.039 40 100.006 40 99.9728 40.0004C89.7897 40.0423 86.1911 54.1264 94.9571 59.3814C95.4836 59.6971 95.8211 59.8489 95.8211 59.8489L103.499 101.667H110.371C118.288 100.578 124.93 97.7919 128.014 96.3747Z" fill="#694B4B"/>
<path d="M128.014 96.3747C129.674 95.6114 130.409 93.7259 129.772 92.0158C126.886 84.2588 124.596 70.924 124.102 63.9813C123.161 50.7697 113.344 40 100.073 40C100.039 40 100.006 40 99.9728 40.0004C89.7897 40.0423 86.1911 54.1264 94.9571 59.3814C95.4836 59.6971 95.8211 59.8489 95.8211 59.8489L103.499 101.667H110.371C118.288 100.578 124.93 97.7919 128.014 96.3747Z" fill="url(#paint1_linear)"/>
<path d="M112.736 80.6909H87.5066V116.274H112.736V80.6909Z" fill="url(#paint2_linear)"/>
<path d="M158.393 76.3726L154.835 88.8242L138.016 74.1079C135.694 74.1079 133.812 72.2252 133.812 69.9032C133.812 66.42 136.636 63.5962 140.119 63.5962H154.835C157.157 63.5962 159.04 65.4788 159.04 67.8009V71.7525C159.04 73.3148 158.822 74.8698 158.393 76.3726Z" fill="#694B4B"/>
<path d="M158.393 76.3726L154.835 88.8242L138.016 74.1079C135.694 74.1079 133.812 72.2252 133.812 69.9032C133.812 66.42 136.636 63.5962 140.119 63.5962H154.835C157.157 63.5962 159.04 65.4788 159.04 67.8009V71.7525C159.04 73.3148 158.822 74.8698 158.393 76.3726Z" fill="url(#paint3_linear)"/>
<path d="M150.628 93.4658H138.014V102.771H150.628V93.4658Z" fill="url(#paint4_linear)"/>
<path d="M160.772 101.463L150.63 98.5652L144.323 102.75L138.016 98.5649L127.874 101.463C125.167 102.237 123.3 104.711 123.3 107.527V172.898C123.3 174.059 124.241 175 125.402 175H163.245C164.406 175 165.347 174.059 165.347 172.898V107.527C165.347 104.711 163.48 102.237 160.772 101.463Z" fill="url(#paint5_linear)"/>
<path d="M144.321 97.2339C137.355 97.2339 131.707 91.5863 131.707 84.6199V82.1568C131.707 81.0418 132.15 79.9723 132.939 79.1836L136.751 75.3712C137.558 74.5639 138.662 74.0998 139.803 74.1357C146.524 74.3478 152.472 75.7875 155.724 78.9634C156.52 79.7409 156.936 80.8284 156.936 81.941V84.6199C156.936 91.5865 151.288 97.2339 144.321 97.2339Z" fill="url(#paint6_linear)"/>
<path d="M69.3558 104.833L62.5524 101.431C61.1277 100.719 60.2278 99.2627 60.228 97.6701L60.2285 91.3628H47.614V97.6703C47.614 99.263 46.7143 100.719 45.2897 101.431L38.4862 104.833C36.3495 105.901 35 108.085 35 110.473V122.898C35 124.058 35.9412 125 37.1023 125H70.74C71.9011 125 72.8423 124.058 72.8423 122.898V110.474C72.8423 108.085 71.4925 105.901 69.3558 104.833Z" fill="url(#paint7_linear)"/>
<path d="M69.3558 104.832L64.5091 102.409C62.2616 105.879 58.3637 108.181 53.9213 108.181C49.4788 108.181 45.5807 105.879 43.3332 102.409L38.4865 104.832C36.3498 105.901 35 108.084 35 110.473V172.897C35 174.058 35.9412 175 37.1023 175H70.74C71.9011 175 72.8423 174.058 72.8423 172.897V110.473C72.8423 108.084 71.4925 105.901 69.3558 104.832Z" fill="url(#paint8_linear)"/>
<path d="M99.9575 95C89.7408 95 81.3052 86.8991 80.0297 76.4133C79.8448 74.8939 80.5322 73.4043 81.8195 72.7144C83.3614 71.888 85.6021 70.4945 87.7475 68.4606C90.1366 66.1958 91.5382 63.8074 92.3298 62.0541C93.0116 60.5442 94.5787 59.6902 96.106 60.1042C107.898 63.2998 115.926 69.818 118.839 72.4792C119.621 73.1936 120.071 74.2471 119.991 75.3399C119.179 86.3407 110.52 95 99.9575 95Z" fill="url(#paint9_linear)"/>
<path d="M130.376 101.963L112.786 97.2334C112.786 97.2334 115.833 101.964 100 101.964C84.1667 101.963 87.558 97.2337 87.558 97.2337C87.558 97.2337 73.4009 101.964 69.9676 101.964C66.5343 101.963 66.5343 101.964 65.0002 109.167C63.4661 116.37 63.2039 151.285 64.432 172.898C64.432 174.059 65.3732 175 66.5343 175H133.81C134.971 175 135.912 174.059 135.912 172.898C137.959 148.753 136.588 120.833 135 109.867C133.412 98.8998 133.7 103.172 130.376 101.963Z" fill="url(#paint10_linear)"/>
<path d="M105.833 109.981C101.792 110.365 100.833 104.203 100.833 101.667C110.833 100.906 112.778 98.5685 112.5 96.6665C115 97.3005 120.833 98.9489 120.833 100.471C120.833 102.373 115.833 109.03 105.833 109.981Z" fill="url(#paint11_linear)"/>
<path d="M94.1667 109.981C98.2079 110.365 99.1667 104.203 99.1667 101.667C89.1668 100.906 87.2223 98.5685 87.5001 96.6665C85.0001 97.3005 79.1668 98.9489 79.1668 100.471C79.1668 102.373 84.1668 109.03 94.1667 109.981Z" fill="url(#paint12_linear)"/>
<path d="M66.6667 77.9716V67.5C66.6667 66.1192 65.5812 65 64.2425 65H49.697C44.3416 65 40 69.4771 40 75.0001V77.9716C40 79.3151 40.21 80.6499 40.6221 81.9244L41.0256 83.1727C41.1491 83.555 41.2121 83.9554 41.2121 84.3585V85H65.4544V84.3585C65.4544 83.9554 65.5174 83.555 65.641 83.1727L66.0445 81.9244C66.4566 80.6497 66.6667 79.315 66.6667 77.9716Z" fill="#52646D"/>
<path d="M46.6667 70.0781C46.6667 72.8827 48.9849 75.1562 51.8444 75.1562H52.5613L52.9073 85H67.0589V84.3585C67.0589 83.9554 67.1251 83.555 67.2551 83.1727L67.6793 81.9243C68.1126 80.6498 68.3334 79.3151 68.3334 77.9715V67.5C68.3334 66.1192 67.1921 65 65.7844 65H51.8444C48.9849 65 46.6667 67.2736 46.6667 70.0781Z" fill="#694B4B"/>
<path d="M46.6667 70.0781C46.6667 72.8827 48.9849 75.1562 51.8444 75.1562H52.5613L52.9073 85H67.0589V84.3585C67.0589 83.9554 67.1251 83.555 67.2551 83.1727L67.6793 81.9243C68.1126 80.6498 68.3334 79.3151 68.3334 77.9715V67.5C68.3334 66.1192 67.1921 65 65.7844 65H51.8444C48.9849 65 46.6667 67.2736 46.6667 70.0781Z" fill="url(#paint13_linear)"/>
<path d="M54.167 98.3333C47.2633 98.3333 41.6667 92.8038 41.6667 85.9828V84.5358C41.6667 83.8807 41.9301 83.2525 42.3989 82.7891L43.4344 81.766C43.9032 81.3028 44.1666 80.6745 44.1666 80.0193V77.0587C44.1666 76.4868 44.5553 75.99 45.1186 75.8585C48.075 75.1686 57.2747 73.5344 63.5355 78.0839C63.9421 78.3793 64.1669 78.8646 64.1669 79.3632V80.0193C64.1669 80.6744 64.4303 81.3027 64.8991 81.766L65.9346 82.7891C66.4034 83.2523 66.6668 83.8806 66.6668 84.5358V85.9828C66.6672 92.8038 61.0706 98.3333 54.167 98.3333Z" fill="url(#paint14_linear)"/>
</g>
</g>
<defs>
<filter id="filter0_d" x="27" y="35" width="146.347" height="151" filterUnits="userSpaceOnUse" color-interpolation-filters="sRGB">
<feFlood flood-opacity="0" result="BackgroundImageFix"/>
<feColorMatrix in="SourceAlpha" type="matrix" values="0 0 0 0 0 0 0 0 0 0 0 0 0 0 0 0 0 0 127 0"/>
<feOffset dy="3"/>
<feGaussianBlur stdDeviation="4"/>
<feColorMatrix type="matrix" values="0 0 0 0 0.468403 0 0 0 0 0.591667 0 0 0 0 0.532714 0 0 0 0.16 0"/>
<feBlend mode="normal" in2="BackgroundImageFix" result="effect1_dropShadow"/>
<feBlend mode="normal" in="SourceGraphic" in2="effect1_dropShadow" result="shape"/>
</filter>
<linearGradient id="paint0_linear" x1="99.1668" y1="113.333" x2="99.1668" y2="158.333" gradientUnits="userSpaceOnUse">
<stop/>
<stop offset="1" stop-opacity="0"/>
</linearGradient>
<linearGradient id="paint1_linear" x1="126.923" y1="40" x2="93.3207" y2="60.9466" gradientUnits="userSpaceOnUse">
<stop stop-color="#AEBFC8"/>
<stop offset="1" stop-color="#52646D"/>
</linearGradient>
<linearGradient id="paint2_linear" x1="107.091" y1="79.2718" x2="100.968" y2="100.522" gradientUnits="userSpaceOnUse">
<stop stop-color="#E4EAED"/>
<stop offset="1" stop-color="#B5BEC2"/>
</linearGradient>
<linearGradient id="paint3_linear" x1="157.099" y1="63.5962" x2="141.8" y2="78.2988" gradientUnits="userSpaceOnUse">
<stop stop-color="#AEBFC8"/>
<stop offset="1" stop-color="#52646D"/>
</linearGradient>
<linearGradient id="paint4_linear" x1="147.806" y1="93.0947" x2="146.92" y2="98.9792" gradientUnits="userSpaceOnUse">
<stop stop-color="#E4EAED"/>
<stop offset="1" stop-color="#B5BEC2"/>
</linearGradient>
<linearGradient id="paint5_linear" x1="155.94" y1="95.5165" x2="136.427" y2="135.742" gradientUnits="userSpaceOnUse">
<stop stop-color="#E4EAED"/>
<stop offset="1" stop-color="#718591"/>
</linearGradient>
<linearGradient id="paint6_linear" x1="151.291" y1="73.2125" x2="152.435" y2="96.6742" gradientUnits="userSpaceOnUse">
<stop stop-color="#E4EAED"/>
<stop offset="1" stop-color="#B5BEC2"/>
</linearGradient>
<linearGradient id="paint7_linear" x1="64.3756" y1="90.0213" x2="60.5514" y2="111.083" gradientUnits="userSpaceOnUse">
<stop stop-color="#E4EAED"/>
<stop offset="1" stop-color="#B5BEC2"/>
</linearGradient>
<linearGradient id="paint8_linear" x1="64.3756" y1="99.5136" x2="45.895" y2="136.708" gradientUnits="userSpaceOnUse">
<stop stop-color="#E4EAED"/>
<stop offset="1" stop-color="#728692"/>
</linearGradient>
<linearGradient id="paint9_linear" x1="111.051" y1="58.6041" x2="112.708" y2="94.1593" gradientUnits="userSpaceOnUse">
<stop stop-color="#E4EAED"/>
<stop offset="1" stop-color="#B5BEC2"/>
</linearGradient>
<linearGradient id="paint10_linear" x1="120.546" y1="94.1319" x2="101.596" y2="147.862" gradientUnits="userSpaceOnUse">
<stop stop-color="#E4EAED"/>
<stop offset="1" stop-color="#748995"/>
</linearGradient>
<linearGradient id="paint11_linear" x1="115" y1="97.4998" x2="115.487" y2="106.27" gradientUnits="userSpaceOnUse">
<stop stop-color="#E4EAED"/>
<stop offset="1" stop-color="#879FAB"/>
</linearGradient>
<linearGradient id="paint12_linear" x1="96.6667" y1="93.3332" x2="84.1667" y2="105" gradientUnits="userSpaceOnUse">
<stop stop-color="#E4EAED"/>
<stop offset="1" stop-color="#6A828F"/>
</linearGradient>
<linearGradient id="paint13_linear" x1="66.6668" y1="65" x2="54.5385" y2="77.6268" gradientUnits="userSpaceOnUse">
<stop stop-color="#AEBFC8"/>
<stop offset="1" stop-color="#52646D"/>
</linearGradient>
<linearGradient id="paint14_linear" x1="61.0734" y1="74.0694" x2="62.2513" y2="97.7658" gradientUnits="userSpaceOnUse">
<stop stop-color="#E4EAED"/>
<stop offset="1" stop-color="#B5BEC2"/>
</linearGradient>
</defs>
</svg>
