<svg width="208" height="224" viewBox="0 0 208 224" fill="none" xmlns="http://www.w3.org/2000/svg">
<g filter="url(#filter0_ddd)">
<path fill-rule="evenodd" clip-rule="evenodd" d="M46 36C37.1634 36 30 43.1634 30 52V168C30 176.837 37.1634 184 46 184H162C170.837 184 178 176.837 178 168V52C178 43.1634 170.837 36 162 36H46ZM46 42C40.4772 42 36 46.4772 36 52V168C36 173.523 40.4772 178 46 178H162C167.523 178 172 173.523 172 168V52C172 46.4772 167.523 42 162 42H46Z" fill="white"/>
</g>
<path d="M48.5829 186.494C50.2619 186.494 51.7549 185.3 52.0732 183.589C52.432 181.66 51.1587 179.804 49.229 179.445C37.9343 177.344 28.4598 169.81 23.885 159.29C19.6055 149.451 20.1077 138.402 25.2625 128.975C26.2043 127.253 25.5715 125.093 23.8493 124.151C22.1271 123.209 19.9676 123.842 19.0258 125.565C12.8102 136.932 12.2053 150.258 17.3668 162.125C22.8849 174.813 34.31 183.9 47.9295 186.433C48.1487 186.474 48.3675 186.494 48.5829 186.494Z" fill="#F9C543"/>
<path d="M48.5829 186.494C50.2619 186.494 51.7549 185.3 52.0732 183.589C52.432 181.66 51.1587 179.804 49.229 179.445C37.9343 177.344 28.4598 169.81 23.885 159.29C19.6055 149.451 20.1077 138.402 25.2625 128.975C26.2043 127.253 25.5715 125.093 23.8493 124.151C22.1271 123.209 19.9676 123.842 19.0258 125.565C12.8102 136.932 12.2053 150.258 17.3668 162.125C22.8849 174.813 34.31 183.9 47.9295 186.433C48.1487 186.474 48.3675 186.494 48.5829 186.494Z" fill="url(#paint0_linear)"/>
<path d="M15.1233 153.4C17.7733 153.4 19.738 152.98 19.9532 152.932C20.6703 152.773 21.2029 152.15 21.2485 151.417C21.2545 151.319 21.3913 148.997 20.8799 146.116C20.1809 142.177 18.5861 139.048 16.2675 137.067C13.949 135.086 10.6095 133.998 6.60944 133.923C6.45362 133.92 6.29935 133.918 6.14775 133.918C3.49618 133.918 1.53151 134.338 1.31606 134.386C0.599259 134.545 0.066641 135.169 0.0209818 135.902C0.0149973 136 -0.121759 138.321 0.389359 141.202C1.08821 145.141 2.6834 148.27 5.00205 150.252C7.32026 152.232 10.66 153.32 14.6599 153.396C14.817 153.398 14.9715 153.4 15.1233 153.4Z" fill="#F9C543"/>
<path d="M37.8839 197.421C41.0007 197.421 43.7414 196.681 45.8096 195.282C48.3355 193.574 50.2713 190.643 51.4077 186.808C52.2229 184.056 52.3562 181.826 52.3686 181.581C52.4054 180.848 51.9459 180.169 51.2512 179.93C51.0198 179.851 48.904 179.144 46.0437 178.877C45.3561 178.812 44.6745 178.779 44.0178 178.779C40.9019 178.779 38.1619 179.519 36.0937 180.918C33.5676 182.626 31.6317 185.557 30.4953 189.393C29.6801 192.144 29.5469 194.374 29.5343 194.62C29.4975 195.352 29.957 196.031 30.6516 196.27C30.883 196.35 32.9986 197.056 35.8592 197.324C36.5463 197.388 37.2277 197.421 37.8839 197.421Z" fill="#F9C543"/>
<path d="M18.7283 178.325C21.1292 178.325 23.6901 177.637 26.3394 176.279C28.8955 174.969 30.5993 173.528 30.785 173.368C31.3411 172.889 31.5156 172.088 31.209 171.42C31.1682 171.331 30.1914 169.222 28.3779 166.924C25.8995 163.784 23.0147 161.781 20.0349 161.131C19.2749 160.965 18.4721 160.882 17.6493 160.882C15.2482 160.882 12.6875 161.57 10.038 162.928C7.48217 164.237 5.77815 165.679 5.5924 165.839C5.03629 166.318 4.86186 167.119 5.16862 167.787C5.2094 167.876 6.18598 169.985 7.99971 172.283C10.4782 175.423 13.3629 177.426 16.3427 178.076C16.4586 178.101 16.5755 178.124 16.6936 178.146L16.6956 178.146C17.3497 178.265 18.0319 178.325 18.7283 178.325Z" fill="#F9C543"/>
<path d="M24.2473 128.929C24.8431 128.929 25.3956 128.606 25.6898 128.088C25.7379 128.003 26.8782 125.975 27.6806 123.162C28.778 119.315 28.7152 115.803 27.4991 113.006C26.2827 110.21 23.7565 107.769 20.1942 105.948C17.5877 104.616 15.3291 104.069 15.2342 104.046C15.1061 104.016 14.976 104 14.8463 104C14.2512 104 13.6989 104.322 13.405 104.841C13.3567 104.926 12.2163 106.954 11.4139 109.767C10.3165 113.615 10.3795 117.126 11.5955 119.923C12.8118 122.719 15.338 125.16 18.9 126.981C21.5066 128.312 23.7654 128.861 23.8605 128.883C23.9877 128.913 24.1178 128.929 24.2473 128.929Z" fill="#F9C543"/>
<path d="M159.158 186.494C157.479 186.494 155.986 185.3 155.668 183.589C155.309 181.66 156.582 179.804 158.512 179.445C169.807 177.344 179.281 169.81 183.856 159.29C188.136 149.451 187.633 138.402 182.479 128.975C181.537 127.253 182.17 125.093 183.892 124.151C185.614 123.209 187.774 123.842 188.716 125.565C194.931 136.932 195.536 150.258 190.375 162.125C184.856 174.813 173.431 183.9 159.812 186.433C159.592 186.474 159.374 186.494 159.158 186.494Z" fill="#F9C543"/>
<path d="M159.158 186.494C157.479 186.494 155.986 185.3 155.668 183.589C155.309 181.66 156.582 179.804 158.512 179.445C169.807 177.344 179.281 169.81 183.856 159.29C188.136 149.451 187.633 138.402 182.479 128.975C181.537 127.253 182.17 125.093 183.892 124.151C185.614 123.209 187.774 123.842 188.716 125.565C194.931 136.932 195.536 150.258 190.375 162.125C184.856 174.813 173.431 183.9 159.812 186.433C159.592 186.474 159.374 186.494 159.158 186.494Z" fill="url(#paint1_linear)"/>
<path d="M192.617 153.4C189.967 153.4 188.002 152.98 187.787 152.932C187.07 152.773 186.537 152.15 186.492 151.417C186.486 151.319 186.349 148.997 186.86 146.116C187.559 142.177 189.154 139.048 191.473 137.067C193.791 135.086 197.131 133.998 201.131 133.923C201.287 133.92 201.441 133.918 201.592 133.918C204.244 133.918 206.209 134.338 206.424 134.386C207.141 134.545 207.673 135.169 207.719 135.902C207.725 136 207.862 138.321 207.351 141.202C206.652 145.141 205.057 148.27 202.738 150.252C200.42 152.232 197.08 153.32 193.08 153.396C192.923 153.398 192.769 153.4 192.617 153.4Z" fill="#F9C543"/>
<path d="M169.857 197.421C166.74 197.421 164 196.681 161.931 195.282C159.405 193.574 157.47 190.643 156.333 186.808C155.518 184.056 155.385 181.826 155.372 181.581C155.335 180.848 155.795 180.169 156.49 179.93C156.721 179.851 158.837 179.144 161.697 178.877C162.385 178.812 163.066 178.779 163.723 178.779C166.839 178.779 169.579 179.519 171.647 180.918C174.173 182.626 176.109 185.557 177.245 189.393C178.061 192.144 178.194 194.374 178.206 194.62C178.243 195.352 177.784 196.031 177.089 196.27C176.858 196.35 174.742 197.056 171.881 197.324C171.195 197.388 170.513 197.421 169.857 197.421Z" fill="#F9C543"/>
<path d="M189.012 178.325C186.611 178.325 184.051 177.637 181.401 176.279C178.845 174.969 177.141 173.528 176.956 173.368C176.4 172.889 176.225 172.088 176.532 171.42C176.573 171.331 177.549 169.222 179.363 166.924C181.841 163.784 184.726 161.781 187.706 161.131C188.466 160.965 189.269 160.882 190.092 160.882C192.493 160.882 195.053 161.57 197.703 162.928C200.259 164.237 201.963 165.679 202.148 165.839C202.705 166.318 202.879 167.119 202.572 167.787C202.531 167.876 201.555 169.985 199.741 172.283C197.263 175.423 194.378 177.426 191.398 178.076C191.282 178.101 191.165 178.124 191.047 178.146L191.045 178.146C190.391 178.265 189.709 178.325 189.012 178.325Z" fill="#F9C543"/>
<path d="M183.493 128.929C182.897 128.929 182.344 128.606 182.05 128.088C182.002 128.003 180.862 125.975 180.059 123.162C178.962 119.315 179.025 115.803 180.241 113.006C181.458 110.21 183.984 107.769 187.546 105.948C190.153 104.616 192.411 104.069 192.506 104.046C192.634 104.016 192.764 104 192.894 104C193.489 104 194.041 104.322 194.335 104.841C194.384 104.926 195.524 106.954 196.326 109.767C197.424 113.615 197.361 117.126 196.145 119.923C194.928 122.719 192.402 125.16 188.84 126.981C186.234 128.312 183.975 128.861 183.88 128.883C183.752 128.913 183.622 128.929 183.493 128.929Z" fill="#F9C543"/>
<path fill-rule="evenodd" clip-rule="evenodd" d="M162 42H46C40.4772 42 36 46.4772 36 52V168C36 173.523 40.4772 178 46 178H162C167.523 178 172 173.523 172 168V52C172 46.4772 167.523 42 162 42ZM46 36C37.1634 36 30 43.1634 30 52V168C30 176.837 37.1634 184 46 184H162C170.837 184 178 176.837 178 168V52C178 43.1634 170.837 36 162 36H46Z" fill="#F9C543"/>
<path fill-rule="evenodd" clip-rule="evenodd" d="M162 42H46C40.4772 42 36 46.4772 36 52V168C36 173.523 40.4772 178 46 178H162C167.523 178 172 173.523 172 168V52C172 46.4772 167.523 42 162 42ZM46 36C37.1634 36 30 43.1634 30 52V168C30 176.837 37.1634 184 46 184H162C170.837 184 178 176.837 178 168V52C178 43.1634 170.837 36 162 36H46Z" fill="url(#paint2_linear)"/>
<path fill-rule="evenodd" clip-rule="evenodd" d="M128.009 12.0017C128.009 8.68755 130.696 6.00079 134.01 6.00079C137.112 6.00656 139.699 8.37574 139.976 11.4656C140.272 14.7665 137.836 17.6826 134.535 17.9786L131.007 39.1393C130.804 44.9632 117.325 48.007 104.005 48.007C90.6862 48.007 77.2076 44.9633 77.0036 39.1398L73.4758 17.9786C70.3766 17.7065 67.9994 15.1108 68 11.9998C68.0006 8.68558 70.6877 5.99925 74.0018 5.99981C77.3161 6.00037 80.0023 8.68755 80.0017 12.0017C80.0006 12.6308 79.8993 13.2557 79.7017 13.8531L84.5712 16.9466C87.7748 18.9863 91.9975 18.3098 94.4036 15.3713L99.1743 9.5355C98.4151 8.51343 98.0047 7.2742 98.0041 6.00093C98.0041 2.68676 100.691 0 104.005 0C107.319 0 110.006 2.68676 110.006 6.00093C110.005 7.2742 109.595 8.51343 108.836 9.5355L113.607 15.3713C116.013 18.3115 120.238 18.9882 123.442 16.9466L128.309 13.8531C128.111 13.2557 128.01 12.6308 128.009 12.0017Z" fill="#F9C543"/>
<path fill-rule="evenodd" clip-rule="evenodd" d="M128.009 12.0017C128.009 8.68755 130.696 6.00079 134.01 6.00079C137.112 6.00656 139.699 8.37574 139.976 11.4656C140.272 14.7665 137.836 17.6826 134.535 17.9786L131.007 39.1393C130.804 44.9632 117.325 48.007 104.005 48.007C90.6862 48.007 77.2076 44.9633 77.0036 39.1398L73.4758 17.9786C70.3766 17.7065 67.9994 15.1108 68 11.9998C68.0006 8.68558 70.6877 5.99925 74.0018 5.99981C77.3161 6.00037 80.0023 8.68755 80.0017 12.0017C80.0006 12.6308 79.8993 13.2557 79.7017 13.8531L84.5712 16.9466C87.7748 18.9863 91.9975 18.3098 94.4036 15.3713L99.1743 9.5355C98.4151 8.51343 98.0047 7.2742 98.0041 6.00093C98.0041 2.68676 100.691 0 104.005 0C107.319 0 110.006 2.68676 110.006 6.00093C110.005 7.2742 109.595 8.51343 108.836 9.5355L113.607 15.3713C116.013 18.3115 120.238 18.9882 123.442 16.9466L128.309 13.8531C128.111 13.2557 128.01 12.6308 128.009 12.0017Z" fill="url(#paint3_linear)"/>
<g filter="url(#filter1_ddd)">
<circle cx="104" cy="181" r="24" fill="#F9C543"/>
</g>
<path d="M100.329 189C100.105 189 99.9286 188.928 99.8006 188.784C99.6886 188.64 99.6326 188.432 99.6326 188.16C99.6326 187.76 99.7766 187.464 100.065 187.272C100.353 187.064 100.737 186.96 101.217 186.96H102.273V174.696L100.137 175.344C99.9126 175.344 99.7286 175.28 99.5846 175.152C99.4566 175.008 99.3926 174.808 99.3926 174.552C99.3926 174.184 99.4966 173.896 99.7046 173.688C99.9126 173.464 100.233 173.28 100.665 173.136L102.441 172.56H105.849V186.984L107.097 187.392C107.545 187.536 107.857 187.688 108.033 187.848C108.209 188.008 108.297 188.208 108.297 188.448C108.297 188.816 108.145 189 107.841 189H100.329Z" fill="white"/>
<defs>
<filter id="filter0_ddd" x="12" y="19" width="184" height="184" filterUnits="userSpaceOnUse" color-interpolation-filters="sRGB">
<feFlood flood-opacity="0" result="BackgroundImageFix"/>
<feColorMatrix in="SourceAlpha" type="matrix" values="0 0 0 0 0 0 0 0 0 0 0 0 0 0 0 0 0 0 127 0"/>
<feOffset dy="3"/>
<feGaussianBlur stdDeviation="2.5"/>
<feColorMatrix type="matrix" values="0 0 0 0 0.760784 0 0 0 0 0.748562 0 0 0 0 0.717647 0 0 0 0.7 0"/>
<feBlend mode="normal" in2="BackgroundImageFix" result="effect1_dropShadow"/>
<feColorMatrix in="SourceAlpha" type="matrix" values="0 0 0 0 0 0 0 0 0 0 0 0 0 0 0 0 0 0 127 0"/>
<feOffset dy="1"/>
<feGaussianBlur stdDeviation="9"/>
<feColorMatrix type="matrix" values="0 0 0 0 0.760784 0 0 0 0 0.748562 0 0 0 0 0.717647 0 0 0 0.24 0"/>
<feBlend mode="normal" in2="effect1_dropShadow" result="effect2_dropShadow"/>
<feColorMatrix in="SourceAlpha" type="matrix" values="0 0 0 0 0 0 0 0 0 0 0 0 0 0 0 0 0 0 127 0"/>
<feOffset dy="6"/>
<feGaussianBlur stdDeviation="5"/>
<feColorMatrix type="matrix" values="0 0 0 0 0.760784 0 0 0 0 0.748562 0 0 0 0 0.717647 0 0 0 0.32 0"/>
<feBlend mode="normal" in2="effect2_dropShadow" result="effect3_dropShadow"/>
<feBlend mode="normal" in="SourceGraphic" in2="effect3_dropShadow" result="shape"/>
</filter>
<filter id="filter1_ddd" x="62" y="140" width="84" height="84" filterUnits="userSpaceOnUse" color-interpolation-filters="sRGB">
<feFlood flood-opacity="0" result="BackgroundImageFix"/>
<feColorMatrix in="SourceAlpha" type="matrix" values="0 0 0 0 0 0 0 0 0 0 0 0 0 0 0 0 0 0 127 0"/>
<feOffset dy="3"/>
<feGaussianBlur stdDeviation="2.5"/>
<feColorMatrix type="matrix" values="0 0 0 0 0.760784 0 0 0 0 0.748562 0 0 0 0 0.717647 0 0 0 0.7 0"/>
<feBlend mode="normal" in2="BackgroundImageFix" result="effect1_dropShadow"/>
<feColorMatrix in="SourceAlpha" type="matrix" values="0 0 0 0 0 0 0 0 0 0 0 0 0 0 0 0 0 0 127 0"/>
<feOffset dy="1"/>
<feGaussianBlur stdDeviation="9"/>
<feColorMatrix type="matrix" values="0 0 0 0 0.760784 0 0 0 0 0.748562 0 0 0 0 0.717647 0 0 0 0.24 0"/>
<feBlend mode="normal" in2="effect1_dropShadow" result="effect2_dropShadow"/>
<feColorMatrix in="SourceAlpha" type="matrix" values="0 0 0 0 0 0 0 0 0 0 0 0 0 0 0 0 0 0 127 0"/>
<feOffset dy="6"/>
<feGaussianBlur stdDeviation="5"/>
<feColorMatrix type="matrix" values="0 0 0 0 0.760784 0 0 0 0 0.748562 0 0 0 0 0.717647 0 0 0 0.32 0"/>
<feBlend mode="normal" in2="effect2_dropShadow" result="effect3_dropShadow"/>
<feBlend mode="normal" in="SourceGraphic" in2="effect3_dropShadow" result="shape"/>
</filter>
<linearGradient id="paint0_linear" x1="93.567" y1="138.8" x2="88.0918" y2="168.803" gradientUnits="userSpaceOnUse">
<stop stop-color="#FFCC4D"/>
<stop offset="1" stop-color="white" stop-opacity="0"/>
<stop offset="1" stop-color="#F9C543" stop-opacity="0"/>
</linearGradient>
<linearGradient id="paint1_linear" x1="235.287" y1="138.8" x2="229.812" y2="168.803" gradientUnits="userSpaceOnUse">
<stop stop-color="#FFCC4D"/>
<stop offset="1" stop-color="white" stop-opacity="0"/>
<stop offset="1" stop-color="#F9C543" stop-opacity="0"/>
</linearGradient>
<linearGradient id="paint2_linear" x1="174.5" y1="36" x2="82.5" y2="135" gradientUnits="userSpaceOnUse">
<stop stop-color="#FFCC4D"/>
<stop offset="1" stop-color="white" stop-opacity="0"/>
<stop offset="1" stop-color="#F9C543" stop-opacity="0"/>
</linearGradient>
<linearGradient id="paint3_linear" x1="130.024" y1="-14.5989" x2="100.964" y2="34.4131" gradientUnits="userSpaceOnUse">
<stop stop-color="#FFCC4D"/>
<stop offset="1" stop-color="white" stop-opacity="0"/>
<stop offset="1" stop-color="#F9C543" stop-opacity="0"/>
</linearGradient>
</defs>
</svg>
