<svg width="1334" height="589" viewBox="0 0 1334 589" fill="none" xmlns="http://www.w3.org/2000/svg">
<path opacity="0.8" d="M32.0214 16C32.0214 7.16345 39.1956 0 48.0321 0C56.8687 0 64.0428 7.16344 64.0428 16V541H32.0214V16Z" fill="#BADBE6"/>
<path opacity="0.8" d="M240.16 16C240.16 7.16345 247.334 0 256.171 0C265.008 0 272.182 7.16344 272.182 16V541H240.16V16Z" fill="#BADBE6"/>
<path opacity="0.8" d="M448.299 16C448.299 7.16345 455.473 0 464.31 0C473.146 0 480.321 7.16344 480.321 16V541H448.299V16Z" fill="#BADBE6"/>
<rect opacity="0.5" y="541" width="512.342" height="48" rx="24" fill="#9CC8AE"/>
<path opacity="0.5" d="M16.0107 93C16.0107 84.1634 23.1741 77 32.0107 77H480.331C489.168 77 496.331 84.1634 496.331 93C496.331 101.837 489.168 109 480.331 109H32.0107C23.1741 109 16.0107 101.837 16.0107 93Z" fill="#9CC8AE"/>
<path opacity="0.5" d="M224.15 285C224.15 276.163 231.313 269 240.15 269H480.331C489.168 269 496.331 276.163 496.331 285C496.331 293.837 489.168 301 480.331 301H240.15C231.313 301 224.15 293.837 224.15 285Z" fill="#9CC8AE"/>
<path d="M319.589 172C346.088 172 367.569 193.49 367.569 220V333.735L369.022 334.302C387.435 341.492 399.556 359.243 399.556 379.017V557C399.556 566.389 381.655 574 359.573 574C337.491 574 319.589 566.389 319.589 557V172Z" fill="#E8B73C"/>
<path d="M111.676 20C138.175 20 159.656 41.4903 159.656 68V253.735L161.108 254.302C179.521 261.492 191.643 279.243 191.643 299.017V557C191.643 566.389 173.741 574 151.659 574C129.577 574 111.676 566.389 111.676 557V20Z" fill="#E8B73C"/>
<mask id="mask0" mask-type="alpha" maskUnits="userSpaceOnUse" x="319" y="171" width="82" height="402">
<path fill-rule="evenodd" clip-rule="evenodd" d="M320.214 171C346.724 171 368.246 192.49 368.246 219V355L371.737 356.549C389.084 364.247 400.267 381.444 400.267 400.423V559H398.935C395.603 566.958 379.247 573 359.573 573C337.491 573 319.589 565.389 319.589 556C319.589 554.973 319.804 553.967 320.214 552.99V171Z" fill="url(#paint0_linear)"/>
<path fill-rule="evenodd" clip-rule="evenodd" d="M320.214 171C346.724 171 368.246 192.49 368.246 219V355L371.737 356.549C389.084 364.247 400.267 381.444 400.267 400.423V559H398.935C395.603 566.958 379.247 573 359.573 573C337.491 573 319.589 565.389 319.589 556C319.589 554.973 319.804 553.967 320.214 552.99V171Z" fill="url(#paint1_linear)" fill-opacity="0.3"/>
</mask>
<g mask="url(#mask0)">
<path opacity="0.6" fill-rule="evenodd" clip-rule="evenodd" d="M371.547 372.565C370.794 371.812 369.574 371.812 368.822 372.565L363.032 378.357C362.28 379.109 362.28 380.33 363.032 381.083L369.503 387.556C369.879 387.933 370.489 387.933 370.865 387.556L377.336 381.083C378.089 380.33 378.089 379.109 377.336 378.357L371.547 372.565ZM368.821 405.839C369.574 406.591 370.794 406.591 371.547 405.839L377.336 400.047C378.089 399.294 378.089 398.073 377.336 397.32L370.865 390.847C370.489 390.471 369.879 390.471 369.503 390.847L363.032 397.32C362.28 398.073 362.28 399.294 363.032 400.047L368.821 405.839ZM386.779 387.873C387.531 388.626 387.531 389.847 386.779 390.6L380.989 396.391C380.237 397.144 379.017 397.144 378.264 396.391L371.793 389.918C371.417 389.542 371.417 388.931 371.793 388.555L378.264 382.081C379.017 381.329 380.237 381.329 380.989 382.081L386.779 387.873ZM353.519 387.874C352.767 388.626 352.767 389.847 353.519 390.599L359.31 396.39C360.063 397.143 361.283 397.143 362.036 396.39L368.508 389.918C368.884 389.542 368.884 388.931 368.508 388.555L362.036 382.083C361.283 381.33 360.063 381.33 359.31 382.083L353.519 387.874ZM351.238 420.171C352.325 419.083 354.087 419.083 355.174 420.171L363.537 428.537C364.624 429.624 364.624 431.387 363.537 432.475L354.19 441.825C353.647 442.369 352.766 442.369 352.222 441.825L342.876 432.475C341.789 431.387 341.789 429.624 342.876 428.537L351.238 420.171ZM351.238 468.233C352.325 469.32 354.087 469.32 355.174 468.233L363.537 459.867C364.624 458.779 364.624 457.016 363.537 455.929L354.19 446.578C353.647 446.035 352.766 446.035 352.222 446.578L342.876 455.929C341.789 457.016 341.789 458.779 342.876 459.867L351.238 468.233ZM377.177 442.283C378.264 443.37 378.264 445.134 377.177 446.221L368.815 454.587C367.728 455.674 365.965 455.674 364.878 454.587L355.532 445.237C354.988 444.693 354.988 443.811 355.532 443.267L364.878 433.917C365.965 432.83 367.728 432.83 368.815 433.917L377.177 442.283ZM329.136 442.283C328.048 443.371 328.048 445.133 329.136 446.221L337.5 454.585C338.587 455.672 340.35 455.672 341.437 454.585L350.785 445.236C351.329 444.693 351.329 443.811 350.785 443.268L341.437 433.919C340.35 432.832 338.587 432.832 337.5 433.919L329.136 442.283ZM399.218 394.171C400.305 393.083 402.067 393.083 403.155 394.171L411.517 402.537C412.604 403.624 412.604 405.387 411.517 406.475L402.17 415.825C401.627 416.369 400.746 416.369 400.202 415.825L390.856 406.475C389.769 405.387 389.769 403.624 390.856 402.537L399.218 394.171ZM399.218 442.233C400.305 443.32 402.067 443.32 403.155 442.233L411.517 433.867C412.604 432.779 412.604 431.016 411.517 429.929L402.17 420.578C401.627 420.035 400.746 420.035 400.202 420.578L390.856 429.929C389.769 431.016 389.769 432.779 390.856 433.867L399.218 442.233ZM425.157 416.283C426.244 417.37 426.244 419.134 425.157 420.221L416.795 428.587C415.708 429.674 413.945 429.674 412.858 428.587L403.512 419.237C402.968 418.693 402.968 417.811 403.512 417.267L412.858 407.917C413.945 406.83 415.708 406.83 416.795 407.917L425.157 416.283ZM377.116 416.283C376.028 417.371 376.028 419.133 377.116 420.221L385.48 428.585C386.567 429.672 388.33 429.672 389.417 428.585L398.766 419.236C399.309 418.693 399.309 417.811 398.766 417.268L389.417 407.919C388.33 406.832 386.567 406.832 385.48 407.919L377.116 416.283ZM390.799 458.625C392.137 457.287 394.306 457.287 395.644 458.625L410.666 473.654C412.004 474.992 412.004 477.162 410.666 478.501L394.433 494.741C393.764 495.41 392.679 495.41 392.01 494.741L375.776 478.501C374.439 477.162 374.439 474.992 375.776 473.654L390.799 458.625ZM390.799 537.778C392.137 539.117 394.306 539.117 395.644 537.778L410.666 522.749C412.004 521.411 412.004 519.241 410.666 517.902L394.433 501.662C393.764 500.993 392.679 500.993 392.01 501.662L375.776 517.902C374.439 519.241 374.439 521.411 375.776 522.749L390.799 537.778ZM432.699 495.859C434.037 497.198 434.037 499.368 432.699 500.706L417.677 515.735C416.339 517.073 414.17 517.073 412.832 515.735L396.598 499.494C395.929 498.825 395.929 497.74 396.598 497.071L412.832 480.83C414.17 479.492 416.339 479.492 417.677 480.83L432.699 495.859ZM353.58 495.86C352.242 497.198 352.242 499.367 353.58 500.706L368.605 515.731C369.944 517.069 372.113 517.069 373.451 515.731L389.688 499.494C390.357 498.825 390.357 497.74 389.688 497.071L373.451 480.834C372.113 479.496 369.944 479.496 368.605 480.834L353.58 495.86ZM330.824 520.625C332.162 519.287 334.331 519.287 335.669 520.625L350.691 535.654C352.029 536.992 352.029 539.162 350.691 540.501L334.457 556.741C333.789 557.41 332.704 557.41 332.035 556.741L315.801 540.501C314.463 539.162 314.463 536.992 315.801 535.654L330.824 520.625ZM330.824 599.778C332.162 601.117 334.331 601.117 335.669 599.778L350.691 584.749C352.029 583.411 352.029 581.241 350.691 579.902L334.457 563.662C333.789 562.993 332.704 562.993 332.035 563.662L315.801 579.902C314.463 581.241 314.463 583.411 315.801 584.749L330.824 599.778ZM372.724 557.859C374.062 559.198 374.062 561.368 372.724 562.706L357.702 577.735C356.364 579.073 354.195 579.073 352.857 577.735L336.623 561.494C335.954 560.825 335.954 559.74 336.623 559.071L352.857 542.83C354.195 541.492 356.364 541.492 357.702 542.83L372.724 557.859ZM293.604 557.86C292.266 559.198 292.266 561.367 293.604 562.706L308.63 577.731C309.968 579.069 312.138 579.069 313.476 577.731L329.713 561.494C330.382 560.825 330.382 559.74 329.713 559.071L313.476 542.834C312.138 541.496 309.968 541.496 308.63 542.834L293.604 557.86ZM404.793 560.625C406.131 559.287 408.3 559.287 409.638 560.625L424.66 575.654C425.998 576.992 425.998 579.162 424.66 580.501L408.427 596.741C407.758 597.41 406.673 597.41 406.004 596.741L389.77 580.501C388.433 579.162 388.433 576.992 389.77 575.654L404.793 560.625ZM404.793 639.778C406.131 641.117 408.3 641.117 409.638 639.778L424.66 624.749C425.998 623.411 425.998 621.241 424.66 619.902L408.427 603.662C407.758 602.993 406.673 602.993 406.004 603.662L389.77 619.902C388.433 621.241 388.433 623.411 389.77 624.749L404.793 639.778ZM446.694 597.859C448.031 599.198 448.031 601.368 446.694 602.706L431.671 617.735C430.333 619.073 428.164 619.073 426.826 617.735L410.592 601.494C409.924 600.825 409.924 599.74 410.592 599.071L426.826 582.83C428.164 581.492 430.333 581.492 431.671 582.83L446.694 597.859ZM367.574 597.86C366.236 599.198 366.236 601.367 367.574 602.706L382.6 617.731C383.938 619.069 386.107 619.069 387.445 617.731L403.683 601.494C404.352 600.825 404.352 599.74 403.683 599.071L387.445 582.834C386.107 581.496 383.938 581.496 382.6 582.834L367.574 597.86Z" fill="url(#paint2_linear)"/>
</g>
<mask id="mask1" mask-type="alpha" maskUnits="userSpaceOnUse" x="111" y="0" width="82" height="574">
<path fill-rule="evenodd" clip-rule="evenodd" d="M112.075 0C138.585 0 160.107 21.4903 160.107 48V300.5L163.554 302.026C180.925 309.713 192.128 326.923 192.128 345.919V557H191.643C191.643 566.389 173.741 574 151.659 574C129.577 574 111.676 566.389 111.676 557C111.676 556.181 111.812 555.376 112.075 554.589V0Z" fill="url(#paint3_linear)"/>
<path fill-rule="evenodd" clip-rule="evenodd" d="M112.075 0C138.585 0 160.107 21.4903 160.107 48V300.5L163.554 302.026C180.925 309.713 192.128 326.923 192.128 345.919V557H191.643C191.643 566.389 173.741 574 151.659 574C129.577 574 111.676 566.389 111.676 557C111.676 556.181 111.812 555.376 112.075 554.589V0Z" fill="#F4F1E8"/>
</mask>
<g mask="url(#mask1)">
<path opacity="0.6" fill-rule="evenodd" clip-rule="evenodd" d="M168.051 324.363C167.299 323.61 166.079 323.61 165.326 324.363L159.537 330.155C158.784 330.908 158.784 332.128 159.537 332.881L166.007 339.355C166.384 339.731 166.994 339.731 167.37 339.355L173.841 332.881C174.593 332.128 174.593 330.908 173.841 330.155L168.051 324.363ZM165.326 357.637C166.079 358.39 167.299 358.39 168.051 357.637L173.841 351.845C174.593 351.092 174.593 349.872 173.841 349.119L167.37 342.645C166.994 342.269 166.384 342.269 166.007 342.645L159.537 349.119C158.784 349.872 158.784 351.092 159.537 351.845L165.326 357.637ZM183.283 339.672C184.036 340.424 184.036 341.645 183.283 342.398L177.494 348.19C176.741 348.943 175.521 348.943 174.769 348.19L168.298 341.716C167.922 341.34 167.922 340.73 168.298 340.353L174.769 333.88C175.521 333.127 176.741 333.127 177.494 333.88L183.283 339.672ZM150.024 339.672C149.271 340.425 149.271 341.645 150.024 342.398L155.815 348.188C156.567 348.941 157.788 348.941 158.54 348.188L165.012 341.716C165.389 341.34 165.389 340.73 165.012 340.353L158.54 333.881C157.788 333.129 156.567 333.129 155.815 333.881L150.024 339.672ZM195.723 345.969C196.81 344.882 198.572 344.882 199.659 345.969L208.021 354.335C209.109 355.422 209.109 357.186 208.021 358.273L198.675 367.624C198.131 368.167 197.25 368.167 196.707 367.624L187.36 358.273C186.273 357.186 186.273 355.422 187.36 354.335L195.723 345.969ZM195.723 394.031C196.81 395.119 198.572 395.119 199.659 394.031L208.021 385.665C209.109 384.578 209.109 382.815 208.021 381.727L198.675 372.377C198.131 371.833 197.25 371.833 196.707 372.377L187.36 381.727C186.273 382.815 186.273 384.578 187.36 385.665L195.723 394.031ZM221.662 368.081C222.749 369.169 222.749 370.932 221.662 372.019L213.299 380.385C212.212 381.473 210.45 381.473 209.363 380.385L200.016 371.035C199.473 370.491 199.473 369.61 200.016 369.066L209.363 359.715C210.45 358.628 212.212 358.628 213.299 359.715L221.662 368.081ZM173.62 368.082C172.533 369.169 172.533 370.932 173.62 372.019L181.984 380.383C183.072 381.47 184.834 381.47 185.922 380.383L195.27 371.035C195.814 370.491 195.814 369.61 195.27 369.066L185.922 359.718C184.834 358.63 183.072 358.63 181.984 359.718L173.62 368.082ZM187.304 410.423C188.641 409.085 190.811 409.085 192.148 410.423L207.171 425.452C208.509 426.791 208.509 428.961 207.171 430.299L190.937 446.54C190.268 447.209 189.184 447.209 188.515 446.54L172.281 430.299C170.943 428.961 170.943 426.791 172.281 425.452L187.304 410.423ZM187.304 489.576C188.641 490.915 190.811 490.915 192.148 489.576L207.171 474.548C208.509 473.209 208.509 471.039 207.171 469.701L190.937 453.46C190.268 452.791 189.184 452.791 188.515 453.46L172.281 469.701C170.943 471.039 170.943 473.209 172.281 474.548L187.304 489.576ZM229.204 447.658C230.542 448.996 230.542 451.166 229.204 452.504L214.182 467.533C212.844 468.872 210.675 468.872 209.337 467.533L193.103 451.293C192.434 450.624 192.434 449.538 193.103 448.869L209.337 432.629C210.675 431.29 212.844 431.29 214.182 432.629L229.204 447.658ZM150.084 447.658C148.746 448.996 148.746 451.166 150.084 452.504L165.11 467.53C166.448 468.868 168.618 468.868 169.956 467.53L186.193 451.292C186.862 450.623 186.862 449.539 186.193 448.87L169.956 432.632C168.618 431.294 166.448 431.294 165.11 432.632L150.084 447.658ZM127.328 472.423C128.666 471.085 130.835 471.085 132.173 472.423L147.196 487.452C148.534 488.791 148.534 490.961 147.196 492.299L130.962 508.54C130.293 509.209 129.209 509.209 128.54 508.54L112.306 492.299C110.968 490.961 110.968 488.791 112.306 487.452L127.328 472.423ZM127.328 551.576C128.666 552.915 130.835 552.915 132.173 551.576L147.196 536.548C148.534 535.209 148.534 533.039 147.196 531.701L130.962 515.46C130.293 514.791 129.209 514.791 128.54 515.46L112.306 531.701C110.968 533.039 110.968 535.209 112.306 536.548L127.328 551.576ZM169.229 509.658C170.567 510.996 170.567 513.166 169.229 514.504L154.206 529.533C152.869 530.872 150.7 530.872 149.362 529.533L133.128 513.293C132.459 512.623 132.459 511.538 133.128 510.869L149.362 494.629C150.7 493.29 152.869 493.29 154.206 494.629L169.229 509.658ZM90.1088 509.658C88.7707 510.996 88.7707 513.166 90.1088 514.504L105.134 529.53C106.473 530.868 108.642 530.868 109.98 529.53L126.217 513.292C126.887 512.623 126.887 511.539 126.217 510.87L109.98 494.632C108.642 493.294 106.473 493.294 105.134 494.632L90.1088 509.658ZM201.298 512.423C202.636 511.085 204.805 511.085 206.142 512.423L221.165 527.452C222.503 528.791 222.503 530.961 221.165 532.299L204.931 548.54C204.262 549.209 203.178 549.209 202.509 548.54L186.275 532.299C184.937 530.961 184.937 528.791 186.275 527.452L201.298 512.423ZM201.298 591.576C202.636 592.915 204.805 592.915 206.142 591.576L221.165 576.548C222.503 575.209 222.503 573.039 221.165 571.701L204.931 555.46C204.262 554.791 203.178 554.791 202.509 555.46L186.275 571.701C184.937 573.039 184.937 575.209 186.275 576.548L201.298 591.576ZM243.198 549.658C244.536 550.996 244.536 553.166 243.198 554.504L228.176 569.533C226.838 570.872 224.669 570.872 223.331 569.533L207.097 553.293C206.428 552.623 206.428 551.538 207.097 550.869L223.331 534.629C224.669 533.29 226.838 533.29 228.176 534.629L243.198 549.658ZM164.079 549.658C162.741 550.996 162.741 553.166 164.079 554.504L179.104 569.53C180.442 570.868 182.612 570.868 183.95 569.53L200.187 553.292C200.856 552.623 200.856 551.539 200.187 550.87L183.95 534.632C182.612 533.294 180.442 533.294 179.104 534.632L164.079 549.658Z" fill="url(#paint4_linear)"/>
</g>
<path d="M614.797 245.032C615.884 254.603 619.797 262.325 626.537 268.198C633.277 274.071 642.082 277.007 652.952 277.007C662.083 277.007 669.475 275.485 675.128 272.44C680.998 269.394 685.237 265.696 687.846 261.346C690.455 256.996 691.76 252.754 691.76 248.621C691.76 239.051 689.368 231.111 684.585 224.803C680.02 218.278 674.258 213.166 667.301 209.468C660.561 205.553 651.322 201.094 639.581 196.091C626.754 190.653 616.536 185.759 608.927 181.408C601.535 176.841 595.121 170.75 589.686 163.137C584.468 155.306 581.859 145.409 581.859 133.446C581.859 123.875 584.577 114.848 590.012 106.365C595.447 97.6642 603.709 90.5948 614.797 85.1569C625.885 79.719 639.473 77 655.561 77C666.214 77 675.019 77.7613 681.976 79.2839C688.933 80.8066 695.999 83.308 703.174 86.7883L691.76 120.721C683.933 118.111 677.519 116.262 672.519 115.174C667.736 114.087 662.192 113.543 655.887 113.543C643.495 113.543 634.364 115.718 628.494 120.068C622.624 124.419 620.015 129.966 620.667 136.709C621.319 142.147 624.58 146.823 630.45 150.738C636.538 154.654 645.886 159.439 658.496 165.095C673.28 171.62 685.564 177.819 695.347 183.692C705.13 189.565 713.501 197.613 720.458 207.837C727.632 218.06 731.219 230.567 731.219 245.359C731.219 264.718 724.806 280.705 711.979 293.321C699.152 305.937 679.585 312.245 653.278 312.245C637.19 312.245 623.385 309.309 611.862 303.436C600.557 297.345 591.86 289.623 585.773 280.27C579.903 270.699 576.75 260.802 576.315 250.579L614.797 245.032Z" fill="#1C3F52"/>
<path d="M940.111 209.468C940.111 197.722 938.48 189.239 935.219 184.019C932.175 178.798 927.175 176.188 920.218 176.188C915.217 176.188 908.478 177.711 899.999 180.756L894.455 183.04C894.889 184.345 895.216 185.868 895.433 187.608C895.65 189.348 895.759 190.979 895.759 192.502V308.656H859.887V210.447C859.887 199.571 857.386 191.197 852.386 185.324C847.386 179.451 840.646 176.514 832.167 176.514C824.558 176.514 816.622 178.907 808.361 183.692V308.656H772.488V145.192H804.121L808.361 147.476C815.535 144.213 823.688 142.582 832.819 142.582C840.211 142.582 847.386 143.887 854.343 146.497C861.3 148.89 867.387 152.805 872.605 158.243C875.649 156.503 880.214 154.11 886.302 151.065C899.129 145.192 911.521 142.255 923.479 142.255C938.915 142.255 951.525 147.041 961.308 156.611C971.091 165.965 975.983 179.016 975.983 195.765V308.656H940.111V209.468Z" fill="#1C3F52"/>
<path d="M1126.39 308.656C1102.91 311.049 1085.95 312.245 1075.52 312.245C1052.69 312.245 1034.53 308.004 1021.06 299.52C1007.58 291.037 1000.84 275.702 1000.84 253.515V226.435C1000.84 204.9 1008.34 190.435 1023.34 183.04C1030.51 179.56 1038.67 177.819 1047.8 177.819C1055.84 177.819 1063.78 178.907 1071.6 181.082C1079.43 183.257 1085.73 185.65 1090.52 188.26C1090.52 180.212 1087.26 174.774 1080.73 171.946C1074.21 168.901 1065.84 167.379 1055.62 167.379L1058.56 142.582C1079.43 142.582 1094.76 145.953 1104.54 152.696C1114.54 159.222 1120.63 167.052 1122.8 176.188C1125.19 185.324 1126.39 197.07 1126.39 211.426V308.656ZM1090.52 226.435C1086.6 223.607 1081.06 220.997 1073.89 218.604C1066.93 215.994 1060.52 214.689 1054.65 214.689C1049.43 214.689 1045.19 215.994 1041.93 218.604C1038.67 221.214 1037.04 225.347 1037.04 231.002V248.948C1037.04 268.742 1048.67 278.639 1071.93 278.639C1078.67 278.639 1084.87 278.095 1090.52 277.007V226.435Z" fill="#1C3F52"/>
<path d="M1158.03 145.192H1191.29L1193.9 146.497C1202.81 143.452 1211.18 141.929 1219.01 141.929C1224.44 141.929 1232.38 143.017 1242.82 145.192L1249.34 146.497L1240.86 181.408C1234.77 178.363 1228.79 176.841 1222.92 176.841C1214.88 176.841 1208.03 179.342 1202.38 184.345C1196.72 189.13 1193.9 195.547 1193.9 203.595V308.656H1158.03V145.192Z" fill="#1C3F52"/>
<path d="M1316.06 312.898C1283.02 312.245 1266.49 296.475 1266.49 265.588V80.2628H1303.02V145.192H1334L1326.17 178.798H1303.02V265.588C1303.02 272.983 1305.08 277.986 1309.22 280.596C1313.35 282.989 1319.22 284.185 1326.83 284.185L1316.06 312.898Z" fill="#1C3F52"/>
<path d="M589.686 356.691H661.757C679.585 356.691 693.608 361.259 703.826 370.395C714.044 379.531 719.153 393.452 719.153 412.158C719.153 420.641 717.74 428.69 714.914 436.303C712.087 443.916 706.326 450.659 697.63 456.532L697.304 457.184V457.511C706.87 461.861 714.805 468.93 721.11 478.719C727.632 488.507 730.893 501.232 730.893 516.893C730.893 535.599 725.784 551.696 715.566 565.182C705.565 578.45 688.607 585.085 664.692 585.085H589.686V356.691ZM661.105 450.333C673.28 450.333 682.846 447.07 689.803 440.544C696.76 434.019 700.239 424.557 700.239 412.158C700.239 386.709 686.542 373.984 659.148 373.984H607.948V450.333H661.105ZM664.04 567.792C678.606 567.792 690.129 563.877 698.608 556.046C707.087 548.216 711.327 534.729 711.327 515.588C711.327 500.362 707.196 488.724 698.934 480.676C690.673 472.411 680.889 468.278 669.584 468.278H607.948V567.792H664.04Z" fill="#1C3F52"/>
<path d="M879.257 585.085C855.777 587.477 838.819 588.674 828.383 588.674C805.556 588.674 787.402 584.432 773.923 575.949C760.443 567.466 753.703 552.131 753.703 529.944V502.863C753.703 481.329 761.204 466.864 776.205 459.468C783.38 455.771 792.511 453.922 803.599 453.922C813.817 453.922 824.144 455.662 834.58 459.142C845.015 462.405 853.82 466.755 860.995 472.193C860.995 460.23 857.516 450.768 850.559 443.807C843.602 436.629 830.231 433.04 810.447 433.04L811.426 419.01C832.297 419.01 847.624 422.382 857.408 429.125C867.408 435.65 873.496 443.481 875.67 452.617C878.061 461.752 879.257 473.498 879.257 487.854V585.085ZM860.995 486.223C852.081 482.09 842.515 478.501 832.297 475.456C822.296 472.411 813.056 470.888 804.577 470.888C782.619 470.888 771.64 481.873 771.64 503.842V532.228C771.64 546.367 776.531 556.699 786.315 563.224C796.098 569.532 810.012 572.686 828.057 572.686C837.406 572.686 848.385 571.816 860.995 570.076V486.223Z" fill="#1C3F52"/>
<path d="M1014.27 473.172C1014.27 459.903 1010.36 450.333 1002.53 444.46C994.921 438.369 985.029 435.324 972.854 435.324C965.462 435.324 957.962 436.411 950.353 438.587C942.743 440.544 936.004 443.155 930.134 446.417V585.085H911.871V421.62H930.134L928.829 432.714C934.047 428.146 940.678 424.774 948.722 422.599C956.766 420.206 965.136 419.01 973.833 419.01C985.79 419.01 996.008 420.968 1004.49 424.883C1013.18 428.798 1019.92 434.671 1024.71 442.502C1029.71 450.333 1032.21 460.23 1032.21 472.193V585.085H1014.27V473.172Z" fill="#1C3F52"/>
<path d="M1079.49 472.193C1079.49 449.354 1088.73 433.693 1107.21 425.209C1116.13 421.076 1126.78 419.01 1139.17 419.01C1147.22 419.01 1154.93 419.989 1162.33 421.947C1169.94 423.904 1176.35 426.732 1181.57 430.43V356.691H1199.83V585.085L1181.89 586.716C1167.76 588.239 1156.67 589 1148.63 589C1140.59 589 1132.98 588.239 1125.8 586.716C1118.84 585.193 1111.89 582.692 1104.93 579.212C1097.1 575.296 1090.91 569.532 1086.34 561.919C1081.78 554.306 1079.49 544.953 1079.49 533.859V472.193ZM1181.57 446.417C1175.7 443.155 1168.96 440.544 1161.35 438.587C1153.74 436.411 1146.24 435.324 1138.85 435.324C1126.67 435.324 1116.67 438.369 1108.84 444.46C1101.23 450.333 1097.43 459.903 1097.43 473.172V534.186C1097.43 559.635 1114.93 572.36 1149.93 572.36C1158.2 572.36 1168.74 571.381 1181.57 569.423V446.417Z" fill="#1C3F52"/>
<defs>
<linearGradient id="paint0_linear" x1="319.589" y1="438.561" x2="400.267" y2="438.561" gradientUnits="userSpaceOnUse">
<stop stop-color="#EBBA42"/>
<stop offset="1" stop-color="#CC9D41"/>
</linearGradient>
<linearGradient id="paint1_linear" x1="319.589" y1="244.884" x2="328.623" y2="362.923" gradientUnits="userSpaceOnUse">
<stop stop-color="#FFDF92"/>
<stop offset="1" stop-color="#CF9F41" stop-opacity="0"/>
</linearGradient>
<linearGradient id="paint2_linear" x1="292.181" y1="304.202" x2="391.715" y2="630.678" gradientUnits="userSpaceOnUse">
<stop stop-color="#F4F1E8" stop-opacity="0"/>
<stop offset="1" stop-color="#F4F1E8" stop-opacity="0.5"/>
</linearGradient>
<linearGradient id="paint3_linear" x1="111.676" y1="382.039" x2="192.128" y2="382.039" gradientUnits="userSpaceOnUse">
<stop stop-color="#EBBA42"/>
<stop offset="1" stop-color="#CC9D41"/>
</linearGradient>
<linearGradient id="paint4_linear" x1="88.6855" y1="256" x2="188.22" y2="582.477" gradientUnits="userSpaceOnUse">
<stop stop-color="#F4F1E8" stop-opacity="0"/>
<stop offset="1" stop-color="#F4F1E8" stop-opacity="0.5"/>
</linearGradient>
</defs>
</svg>
